<svg xmlns="http://www.w3.org/2000/svg" xmlns:xlink="http://www.w3.org/1999/xlink" width="297" zoomAndPan="magnify" viewBox="0 0 222.75 225" height="300" preserveAspectRatio="xMidYMid meet" version="1.0"><defs><clipPath id="6ae872f97b"><path d="M 5 6.175781 L 218 6.175781 L 218 218.9375 L 5 218.9375 Z M 5 6.175781 " clip-rule="nonzero"/></clipPath></defs><g clip-path="url(#6ae872f97b)"><path fill="#010600" d="M 217.789062 216.769531 L 198.945312 119.652344 C 198.789062 118.859375 198.09375 118.285156 197.289062 118.285156 L 197.054688 118.285156 C 197.84375 117.613281 198.539062 116.847656 199.136719 115.980469 C 205.445312 106.804688 198.65625 89.136719 195.761719 81.589844 C 195.25 80.265625 194.847656 79.21875 194.707031 78.707031 C 194.265625 77.132812 195.496094 75.167969 197.058594 72.679688 C 198.996094 69.585938 201.40625 65.738281 201.546875 60.71875 C 201.808594 51.226562 196.507812 46.878906 191.542969 45.902344 L 191.839844 45.207031 C 192.339844 44.042969 192.464844 42.734375 192.109375 41.519531 C 191.648438 39.964844 190.554688 38.742188 189.089844 38.117188 L 148.738281 20.90625 C 147.433594 20.351562 145.992188 20.335938 144.675781 20.863281 C 143.359375 21.394531 142.328125 22.402344 141.769531 23.707031 L 136.707031 35.582031 C 135.675781 34.625 134.4375 33.894531 133.054688 33.457031 C 128.617188 32.039062 123.691406 34.117188 121.597656 38.285156 C 120.390625 40.6875 120.234375 43.390625 121.15625 45.902344 C 122.0625 48.378906 123.972656 50.394531 126.402344 51.429688 C 127.425781 51.867188 128.519531 52.121094 129.625 52.179688 L 123.136719 67.394531 C 122.769531 68.25 123.167969 69.242188 124.027344 69.609375 L 129.683594 72.019531 L 103.191406 72.019531 L 103.191406 48.777344 C 103.191406 48.316406 103.027344 47.855469 102.699219 47.53125 C 102.054688 46.90625 101.097656 46.890625 100.445312 47.414062 C 98.875 48.675781 96.964844 49.324219 94.9375 49.28125 C 92.871094 49.238281 90.871094 48.429688 89.359375 47.027344 C 87.449219 45.25 86.480469 42.800781 86.648438 40.21875 C 86.878906 36.675781 89.335938 33.585938 92.746094 32.621094 C 95.453125 31.851562 98.289062 32.445312 100.40625 34.125 C 100.738281 34.386719 101.144531 34.554688 101.566406 34.53125 C 102.523438 34.480469 103.191406 33.714844 103.191406 32.84375 L 103.191406 12.53125 C 103.191406 9.023438 100.339844 6.175781 96.835938 6.175781 L 40.324219 6.175781 C 36.816406 6.175781 33.96875 9.019531 33.96875 12.527344 L 33.96875 69.039062 C 33.96875 70.886719 34.765625 72.546875 36.027344 73.707031 C 34.765625 74.871094 33.96875 76.527344 33.96875 78.375 L 33.96875 113.132812 C 30.328125 109.523438 25.621094 107.964844 21.503906 108.453125 C 16.3125 109.070312 10.351562 113.355469 10.628906 123.410156 C 10.769531 128.429688 13.179688 132.277344 15.121094 135.371094 C 16.679688 137.859375 17.910156 139.824219 17.46875 141.394531 C 17.171875 142.464844 16.777344 143.382812 16.324219 144.441406 C 14.84375 147.894531 13.003906 152.1875 12.808594 164.921875 C 12.765625 167.890625 12.777344 170.6875 12.792969 173.394531 C 12.855469 185.507812 12.902344 195.074219 7.414062 205.0625 C 5.019531 209.414062 4.546875 213.246094 6.085938 215.847656 C 7.210938 217.75 9.292969 218.796875 11.953125 218.796875 C 18.046875 218.796875 23.8125 209.476562 26.492188 196.714844 C 27.265625 201.019531 28.242188 205.832031 29.355469 209.929688 C 31.128906 216.46875 35.25 218.109375 38.234375 217.523438 C 41.359375 216.914062 44.199219 213.671875 43.589844 208.65625 C 43.53125 208.195312 43.464844 207.667969 43.390625 207.085938 L 142.917969 207.085938 L 140.800781 216.972656 C 140.507812 217.859375 141.167969 218.773438 142.101562 218.773438 L 163.488281 218.773438 C 164.292969 218.773438 164.988281 218.203125 165.144531 217.410156 L 179.414062 143.871094 L 193.6875 217.410156 C 193.84375 218.214844 194.546875 218.777344 195.339844 218.777344 L 216.085938 218.777344 C 216.386719 218.777344 216.691406 218.714844 216.953125 218.566406 C 217.613281 218.191406 217.925781 217.460938 217.789062 216.769531 Z M 190.273438 49.117188 C 194.234375 49.585938 198.386719 52.855469 198.175781 60.625 C 198.0625 64.726562 196.007812 68 194.199219 70.886719 C 192.355469 73.828125 190.613281 76.605469 191.457031 79.617188 C 191.640625 80.277344 192.046875 81.335938 192.609375 82.800781 C 195.316406 89.847656 201.65625 106.355469 196.355469 114.070312 C 194.40625 116.90625 191.035156 118.285156 186.046875 118.285156 L 176.515625 118.285156 C 176.515625 118.285156 176.511719 118.285156 176.511719 118.285156 L 171.761719 118.285156 C 170.828125 118.285156 170.074219 119.042969 170.074219 119.972656 L 170.074219 135.453125 C 170.074219 137.855469 168.738281 139.464844 167.5 139.578125 C 166.09375 139.714844 164.289062 137.824219 163.457031 133.328125 C 162.972656 130.703125 162.472656 127.972656 162.117188 125.324219 C 162.113281 125.285156 162.109375 125.246094 162.101562 125.207031 C 161.289062 119.066406 161.300781 113.390625 164.25 110.542969 C 166.644531 108.230469 171.128906 107.78125 177.585938 109.210938 C 178.089844 109.320312 178.609375 109.199219 179.007812 108.878906 C 179.40625 108.558594 179.640625 108.074219 179.640625 107.5625 L 179.640625 94.5 C 179.640625 94.050781 179.460938 93.617188 179.140625 93.300781 C 178.9375 93.101562 158.980469 73.230469 155.398438 62.632812 C 153.910156 58.234375 154.933594 55.550781 156.609375 54.84375 C 158.671875 53.96875 162.085938 55.675781 164.625 60.625 C 172.6875 76.335938 185.902344 83.699219 186.464844 84.003906 C 187.28125 84.449219 188.304688 84.148438 188.753906 83.332031 C 189.199219 82.515625 188.898438 81.488281 188.082031 81.042969 C 187.996094 80.996094 182.246094 77.789062 176.179688 71.226562 C 175.710938 68.4375 175.414062 64.445312 176.003906 61.648438 C 177.914062 52.632812 184.785156 48.464844 190.273438 49.117188 Z M 169.039062 88.609375 L 176.265625 95.199219 L 176.265625 105.507812 C 169.621094 104.355469 164.910156 105.210938 161.90625 108.113281 C 160.113281 109.839844 159.113281 112.148438 158.636719 114.804688 C 154.851562 113.738281 152.242188 110.183594 152.496094 106.085938 C 152.757812 101.832031 156.304688 98.339844 160.566406 98.140625 C 162.644531 98.046875 164.679688 98.707031 166.292969 100.003906 C 166.800781 100.410156 167.496094 100.488281 168.082031 100.207031 C 168.667969 99.929688 169.039062 99.335938 169.039062 98.6875 Z M 103.191406 75.394531 L 137.597656 75.394531 L 141.863281 77.214844 C 142.464844 77.472656 143.152344 77.359375 143.640625 76.933594 C 144.128906 76.503906 144.328125 75.832031 144.152344 75.207031 C 143.765625 73.832031 143.859375 72.410156 144.421875 71.089844 C 145.101562 69.496094 146.371094 68.289062 148.003906 67.691406 C 149.628906 67.09375 151.386719 67.195312 152.941406 67.976562 C 155.730469 69.378906 157.0625 72.765625 155.972656 75.691406 C 155.441406 77.121094 154.410156 78.300781 153.074219 79.015625 C 152.503906 79.320312 152.15625 79.929688 152.1875 80.578125 C 152.214844 81.226562 152.613281 81.800781 153.210938 82.054688 L 165.664062 87.367188 L 165.664062 95.722656 C 164.023438 95.019531 162.234375 94.6875 160.410156 94.773438 C 154.453125 95.050781 149.496094 99.929688 149.128906 105.878906 C 148.761719 111.804688 152.691406 116.929688 158.296875 118.199219 C 158.222656 120.523438 158.417969 123.003906 158.742188 125.535156 L 156.351562 137.867188 L 142.367188 137.867188 C 141.71875 137.867188 141.128906 138.238281 140.847656 138.824219 C 140.566406 139.410156 140.648438 140.105469 141.054688 140.613281 C 142.277344 142.136719 142.925781 143.972656 142.925781 145.929688 C 142.925781 148.300781 141.972656 150.5 140.246094 152.125 C 138.519531 153.746094 136.257812 154.558594 133.878906 154.410156 C 129.761719 154.152344 126.359375 150.867188 125.96875 146.761719 C 125.757812 144.53125 126.410156 142.34375 127.800781 140.613281 C 128.210938 140.105469 128.289062 139.410156 128.007812 138.824219 C 127.726562 138.238281 127.136719 137.867188 126.488281 137.867188 L 103.191406 137.867188 L 103.191406 117.535156 C 104.664062 118.167969 106.261719 118.503906 107.878906 118.503906 C 111.144531 118.503906 114.296875 117.140625 116.53125 114.761719 C 118.800781 112.347656 119.933594 109.191406 119.726562 105.875 C 119.367188 100.113281 114.769531 95.359375 109.03125 94.8125 C 107.003906 94.621094 105.007812 94.941406 103.191406 95.722656 Z M 37.34375 12.527344 C 37.34375 10.886719 38.679688 9.550781 40.324219 9.550781 L 96.835938 9.550781 C 98.480469 9.550781 99.816406 10.886719 99.816406 12.527344 L 99.816406 29.875 C 98.175781 29.171875 96.382812 28.84375 94.5625 28.925781 C 88.605469 29.203125 83.648438 34.082031 83.28125 40.03125 C 83.074219 43.347656 84.210938 46.503906 86.476562 48.914062 C 88.710938 51.292969 91.867188 52.65625 95.128906 52.65625 C 96.746094 52.65625 98.34375 52.324219 99.816406 51.691406 L 99.816406 72.019531 L 76.519531 72.019531 C 75.871094 72.019531 75.28125 72.394531 75 72.976562 C 74.71875 73.5625 74.800781 74.257812 75.207031 74.765625 C 76.429688 76.289062 77.078125 78.128906 77.078125 80.082031 C 77.078125 82.453125 76.125 84.652344 74.398438 86.277344 C 72.671875 87.898438 70.414062 88.710938 68.035156 88.5625 C 63.914062 88.308594 60.511719 85.019531 60.121094 80.917969 C 59.910156 78.683594 60.5625 76.5 61.953125 74.765625 C 62.359375 74.257812 62.441406 73.5625 62.160156 72.980469 C 61.878906 72.394531 61.289062 72.019531 60.640625 72.019531 L 40.324219 72.019531 C 38.679688 72.019531 37.34375 70.683594 37.34375 69.042969 Z M 37.585938 214.214844 C 36.015625 214.519531 33.777344 213.351562 32.609375 209.046875 C 29.933594 199.191406 27.988281 184.5625 27.972656 184.417969 C 27.855469 183.550781 27.101562 182.910156 26.222656 182.953125 C 25.351562 182.992188 24.648438 183.691406 24.613281 184.566406 C 23.867188 201.660156 17.078125 215.425781 11.953125 215.425781 C 10.949219 215.425781 9.621094 215.199219 8.988281 214.128906 C 8.109375 212.640625 8.625 209.859375 10.371094 206.6875 C 16.28125 195.933594 16.230469 185.980469 16.167969 173.378906 C 16.152344 170.691406 16.140625 167.90625 16.183594 164.976562 C 16.367188 152.90625 18.0625 148.949219 19.425781 145.773438 C 19.90625 144.648438 20.359375 143.589844 20.71875 142.308594 C 21.5625 139.296875 19.820312 136.519531 17.976562 133.578125 C 16.167969 130.6875 14.117188 127.414062 14 123.316406 C 13.65625 115.851562 17.796875 111.214844 23.03125 111.742188 C 28.300781 111.742188 34.394531 115.933594 36.171875 124.339844 C 36.816406 127.382812 37.027344 130.789062 36.722656 133.027344 C 30.335938 140.226562 24.179688 143.6875 24.089844 143.734375 C 23.273438 144.183594 22.976562 145.210938 23.425781 146.027344 C 23.875 146.84375 24.898438 147.140625 25.714844 146.691406 C 26.261719 146.394531 39.183594 139.164062 47.542969 123.332031 C 50.152344 118.386719 53.589844 116.6875 55.628906 117.566406 C 57.269531 118.269531 58.261719 120.941406 56.78125 125.324219 C 53.195312 135.921875 33.238281 155.792969 33.035156 155.992188 C 32.652344 156.375 32.476562 156.917969 32.558594 157.449219 C 32.621094 157.863281 39 198.914062 40.238281 209.066406 C 40.601562 212.035156 39.179688 213.902344 37.585938 214.214844 Z M 99.816406 203.714844 L 42.929688 203.714844 C 41.074219 190.421875 36.824219 162.945312 36.023438 157.777344 C 38.101562 155.683594 44.867188 148.726562 50.777344 141.242188 L 60.636719 141.242188 C 61.285156 141.242188 61.878906 140.871094 62.160156 140.285156 C 62.4375 139.699219 62.359375 139.003906 61.953125 138.5 C 60.730469 136.976562 60.082031 135.136719 60.082031 133.179688 C 60.082031 130.808594 61.035156 128.609375 62.761719 126.988281 C 64.488281 125.363281 66.746094 124.550781 69.125 124.699219 C 73.382812 124.964844 76.871094 128.507812 77.070312 132.773438 C 77.164062 134.851562 76.503906 136.886719 75.207031 138.5 C 74.800781 139.003906 74.722656 139.699219 75 140.285156 C 75.28125 140.871094 75.875 141.242188 76.523438 141.242188 L 99.816406 141.242188 L 99.816406 161.570312 C 98.175781 160.863281 96.386719 160.535156 94.5625 160.617188 C 88.605469 160.894531 83.648438 165.773438 83.28125 171.722656 C 83.074219 175.039062 84.207031 178.195312 86.476562 180.605469 C 88.710938 182.984375 91.863281 184.351562 95.128906 184.351562 C 96.746094 184.351562 98.34375 184.015625 99.816406 183.382812 Z M 103.191406 203.714844 L 103.191406 180.421875 C 103.191406 179.773438 102.820312 179.179688 102.234375 178.898438 C 101.648438 178.617188 100.953125 178.699219 100.449219 179.105469 C 98.925781 180.328125 97.085938 180.976562 95.128906 180.976562 C 92.757812 180.976562 90.558594 180.023438 88.9375 178.296875 C 87.3125 176.570312 86.5 174.308594 86.648438 171.933594 C 86.914062 167.675781 90.457031 164.1875 94.71875 163.988281 C 96.808594 163.894531 98.835938 164.554688 100.449219 165.851562 C 100.953125 166.257812 101.648438 166.335938 102.234375 166.054688 C 102.820312 165.777344 103.191406 165.183594 103.191406 164.535156 L 103.191406 141.242188 L 123.519531 141.242188 C 122.734375 143.058594 122.417969 145.058594 122.609375 147.082031 C 123.15625 152.820312 127.910156 157.417969 133.671875 157.777344 C 136.832031 158.03125 140.203125 156.347656 142.554688 154.582031 C 144.9375 152.347656 146.300781 149.191406 146.300781 145.929688 C 146.300781 144.3125 145.964844 142.714844 145.332031 141.242188 L 155.695312 141.242188 L 143.570312 203.714844 Z M 164.859375 201.15625 L 147.503906 201.15625 L 150.113281 187.710938 L 167.46875 187.710938 Z M 171.386719 167.515625 L 154.035156 167.515625 L 156.644531 154.074219 L 173.996094 154.074219 Z M 181.460938 136.703125 L 198.816406 136.703125 L 201.078125 148.367188 L 183.722656 148.367188 Z M 187.296875 166.78125 L 204.652344 166.78125 L 206.917969 178.449219 L 189.5625 178.449219 Z M 193.136719 196.863281 L 210.488281 196.863281 L 212.753906 208.53125 L 195.398438 208.53125 Z M 193.136719 196.863281 " fill-opacity="1" fill-rule="nonzero"/></g></svg>