<svg xmlns="http://www.w3.org/2000/svg" xmlns:xlink="http://www.w3.org/1999/xlink" width="297" zoomAndPan="magnify" viewBox="0 0 222.75 225" height="300" preserveAspectRatio="xMidYMid meet" version="1.0"><defs><clipPath id="5317947348"><path d="M 144 126 L 187.773438 126 L 187.773438 158 L 144 158 Z M 144 126 " clip-rule="nonzero"/></clipPath></defs><path fill="#010600" d="M 104.773438 116.089844 C 119.792969 120.554688 136.078125 108.652344 135.839844 92.558594 C 134.5 60.15625 88.269531 60.160156 86.929688 92.558594 C 86.929688 103.738281 94.492188 113.207031 104.773438 116.089844 Z M 104.773438 116.089844 " fill-opacity="1" fill-rule="nonzero"/><path fill="#010600" d="M 150.800781 155.261719 C 147.59375 136.4375 131.132812 122.074219 111.386719 122.074219 C 89.078125 121.910156 70.40625 141.121094 71.535156 162.933594 C 71.886719 164.019531 72.921875 164.753906 74.089844 164.753906 L 148.679688 164.753906 C 153.167969 164.378906 150.949219 158.117188 150.800781 155.261719 Z M 150.800781 155.261719 " fill-opacity="1" fill-rule="nonzero"/><path fill="#010600" d="M 158.855469 124.195312 C 168.703125 124.195312 176.726562 116.171875 176.726562 106.324219 C 175.828125 82.683594 141.875 82.691406 140.980469 106.324219 C 140.980469 116.171875 149.007812 124.195312 158.855469 124.195312 Z M 158.855469 124.195312 " fill-opacity="1" fill-rule="nonzero"/><g clip-path="url(#5317947348)"><path fill="#010600" d="M 158.855469 126.101562 C 153.792969 126.101562 148.789062 127.433594 144.4375 129.964844 C 145.714844 131.296875 146.886719 132.738281 147.972656 134.234375 C 152.878906 140.855469 155.945312 149.085938 156.542969 157.492188 C 156.542969 157.492188 184.832031 157.492188 184.832031 157.492188 C 186.328125 157.492188 187.550781 156.269531 187.550781 154.773438 C 187.550781 138.96875 174.6875 126.101562 158.855469 126.101562 Z M 158.855469 126.101562 " fill-opacity="1" fill-rule="nonzero"/></g><path fill="#010600" d="M 63.917969 124.195312 C 73.765625 124.195312 81.789062 116.171875 81.789062 106.324219 C 80.890625 82.683594 46.9375 82.691406 46.046875 106.324219 C 46.046875 116.171875 54.070312 124.195312 63.917969 124.195312 Z M 63.917969 124.195312 " fill-opacity="1" fill-rule="nonzero"/><path fill="#010600" d="M 78.335938 129.964844 C 59.785156 118.78125 34.832031 133.078125 35.21875 154.773438 C 35.21875 156.269531 36.441406 157.492188 37.9375 157.492188 L 66.230469 157.492188 C 66.964844 147.167969 71.34375 137.371094 78.335938 129.964844 Z M 78.335938 129.964844 " fill-opacity="1" fill-rule="nonzero"/></svg>