<svg xmlns="http://www.w3.org/2000/svg" xmlns:xlink="http://www.w3.org/1999/xlink" width="297" zoomAndPan="magnify" viewBox="0 0 222.75 225" height="300" preserveAspectRatio="xMidYMid meet" version="1.0"><defs><clipPath id="99a6facab7"><path d="M 44 62.9375 L 178 62.9375 L 178 118 L 44 118 Z M 44 62.9375 " clip-rule="nonzero"/></clipPath><clipPath id="44cb3610dc"><path d="M 41.808594 79 L 180.40625 79 L 180.40625 161.828125 L 41.808594 161.828125 Z M 41.808594 79 " clip-rule="nonzero"/></clipPath><clipPath id="26e927f0ea"><path d="M 140.964844 47.550781 L 185.164062 47.550781 L 185.164062 91.753906 L 140.964844 91.753906 Z M 140.964844 47.550781 " clip-rule="nonzero"/></clipPath></defs><g clip-path="url(#99a6facab7)"><path fill="#010600" d="M 102.164062 114.125 C 102.808594 114.621094 103.492188 115.0625 104.210938 115.445312 C 104.929688 115.828125 105.675781 116.152344 106.445312 116.414062 C 107.21875 116.675781 108.003906 116.875 108.808594 117.007812 C 109.613281 117.140625 110.421875 117.207031 111.238281 117.207031 C 112.054688 117.207031 112.863281 117.140625 113.667969 117.007812 C 114.46875 116.875 115.257812 116.675781 116.03125 116.414062 C 116.800781 116.152344 117.546875 115.828125 118.265625 115.445312 C 118.984375 115.0625 119.667969 114.621094 120.3125 114.125 L 177.902344 69.25 C 177.21875 68.277344 176.429688 67.398438 175.535156 66.613281 C 174.640625 65.828125 173.664062 65.160156 172.605469 64.609375 C 171.550781 64.0625 170.445312 63.644531 169.285156 63.363281 C 168.128906 63.078125 166.957031 62.9375 165.765625 62.9375 L 56.730469 62.9375 C 55.46875 62.941406 54.226562 63.101562 53.007812 63.421875 C 51.789062 63.742188 50.625 64.207031 49.527344 64.824219 C 48.425781 65.441406 47.417969 66.183594 46.507812 67.054688 C 45.597656 67.929688 44.808594 68.902344 44.148438 69.976562 Z M 102.164062 114.125 " fill-opacity="1" fill-rule="nonzero"/></g><g clip-path="url(#44cb3610dc)"><path fill="#010600" d="M 126.382812 121.980469 C 125.308594 122.808594 124.171875 123.539062 122.972656 124.179688 C 121.777344 124.820312 120.535156 125.359375 119.25 125.796875 C 117.964844 126.230469 116.652344 126.5625 115.3125 126.78125 C 113.972656 127.003906 112.625 127.113281 111.269531 127.113281 C 109.910156 127.113281 108.5625 127.003906 107.222656 126.78125 C 105.882812 126.5625 104.570312 126.230469 103.285156 125.796875 C 102 125.359375 100.757812 124.820312 99.5625 124.179688 C 98.363281 123.539062 97.226562 122.808594 96.152344 121.980469 L 41.863281 80.695312 L 41.863281 147.191406 C 41.863281 148.167969 41.957031 149.136719 42.148438 150.09375 C 42.339844 151.050781 42.621094 151.980469 42.992188 152.882812 C 43.367188 153.785156 43.824219 154.640625 44.367188 155.453125 C 44.910156 156.265625 45.527344 157.015625 46.214844 157.707031 C 46.90625 158.394531 47.65625 159.011719 48.46875 159.554688 C 49.28125 160.097656 50.136719 160.554688 51.039062 160.929688 C 51.941406 161.300781 52.871094 161.585938 53.828125 161.773438 C 54.789062 161.964844 55.753906 162.058594 56.730469 162.058594 L 165.765625 162.058594 C 166.742188 162.058594 167.707031 161.964844 168.667969 161.773438 C 169.625 161.585938 170.554688 161.300781 171.457031 160.929688 C 172.359375 160.554688 173.214844 160.097656 174.027344 159.554688 C 174.839844 159.011719 175.589844 158.394531 176.28125 157.707031 C 176.96875 157.015625 177.585938 156.265625 178.128906 155.453125 C 178.671875 154.640625 179.128906 153.785156 179.503906 152.882812 C 179.875 151.980469 180.15625 151.050781 180.347656 150.09375 C 180.539062 149.136719 180.632812 148.167969 180.632812 147.191406 L 180.632812 79.714844 Z M 126.382812 121.980469 " fill-opacity="1" fill-rule="nonzero"/></g><g clip-path="url(#26e927f0ea)"><path fill="#ef4136" d="M 185.164062 69.644531 C 185.164062 70.367188 185.128906 71.089844 185.058594 71.8125 C 184.984375 72.53125 184.878906 73.246094 184.738281 73.957031 C 184.597656 74.667969 184.421875 75.367188 184.210938 76.058594 C 184 76.753906 183.757812 77.433594 183.480469 78.101562 C 183.203125 78.769531 182.894531 79.425781 182.554688 80.0625 C 182.214844 80.703125 181.839844 81.320312 181.4375 81.921875 C 181.035156 82.523438 180.605469 83.105469 180.148438 83.664062 C 179.6875 84.226562 179.203125 84.761719 178.691406 85.273438 C 178.179688 85.785156 177.644531 86.269531 177.082031 86.730469 C 176.523438 87.1875 175.945312 87.617188 175.339844 88.019531 C 174.738281 88.421875 174.121094 88.792969 173.480469 89.136719 C 172.84375 89.476562 172.191406 89.785156 171.519531 90.0625 C 170.851562 90.339844 170.171875 90.582031 169.480469 90.792969 C 168.785156 91.003906 168.085938 91.179688 167.375 91.320312 C 166.664062 91.460938 165.949219 91.566406 165.230469 91.640625 C 164.507812 91.710938 163.789062 91.746094 163.0625 91.746094 C 162.339844 91.746094 161.617188 91.710938 160.898438 91.640625 C 160.175781 91.566406 159.460938 91.460938 158.753906 91.320312 C 158.042969 91.179688 157.339844 91.003906 156.648438 90.792969 C 155.957031 90.582031 155.273438 90.339844 154.605469 90.0625 C 153.9375 89.785156 153.285156 89.476562 152.644531 89.136719 C 152.007812 88.792969 151.386719 88.421875 150.785156 88.019531 C 150.183594 87.617188 149.601562 87.1875 149.042969 86.730469 C 148.484375 86.269531 147.949219 85.785156 147.4375 85.273438 C 146.925781 84.761719 146.4375 84.226562 145.980469 83.664062 C 145.519531 83.105469 145.089844 82.523438 144.6875 81.921875 C 144.285156 81.320312 143.914062 80.703125 143.574219 80.0625 C 143.230469 79.425781 142.921875 78.769531 142.644531 78.101562 C 142.367188 77.433594 142.125 76.753906 141.914062 76.058594 C 141.703125 75.367188 141.527344 74.667969 141.386719 73.957031 C 141.246094 73.246094 141.140625 72.53125 141.070312 71.8125 C 141 71.089844 140.964844 70.367188 140.964844 69.644531 C 140.964844 68.921875 141 68.199219 141.070312 67.480469 C 141.140625 66.757812 141.246094 66.042969 141.386719 65.332031 C 141.527344 64.625 141.703125 63.921875 141.914062 63.230469 C 142.125 62.535156 142.367188 61.855469 142.644531 61.1875 C 142.921875 60.519531 143.230469 59.867188 143.574219 59.226562 C 143.914062 58.589844 144.285156 57.96875 144.6875 57.367188 C 145.089844 56.765625 145.519531 56.183594 145.980469 55.625 C 146.4375 55.066406 146.925781 54.53125 147.4375 54.019531 C 147.949219 53.507812 148.484375 53.019531 149.042969 52.5625 C 149.601562 52.101562 150.183594 51.671875 150.785156 51.269531 C 151.386719 50.867188 152.007812 50.496094 152.644531 50.15625 C 153.285156 49.8125 153.9375 49.503906 154.605469 49.226562 C 155.273438 48.949219 155.957031 48.707031 156.648438 48.496094 C 157.339844 48.285156 158.042969 48.109375 158.753906 47.96875 C 159.460938 47.828125 160.175781 47.722656 160.898438 47.652344 C 161.617188 47.582031 162.339844 47.542969 163.0625 47.542969 C 163.789062 47.542969 164.507812 47.582031 165.230469 47.652344 C 165.949219 47.722656 166.664062 47.828125 167.375 47.96875 C 168.085938 48.109375 168.785156 48.285156 169.480469 48.496094 C 170.171875 48.707031 170.851562 48.949219 171.519531 49.226562 C 172.191406 49.503906 172.84375 49.8125 173.480469 50.15625 C 174.121094 50.496094 174.738281 50.867188 175.339844 51.269531 C 175.945312 51.671875 176.523438 52.101562 177.082031 52.5625 C 177.644531 53.019531 178.179688 53.507812 178.691406 54.019531 C 179.203125 54.53125 179.6875 55.066406 180.148438 55.625 C 180.605469 56.183594 181.035156 56.765625 181.4375 57.367188 C 181.839844 57.96875 182.214844 58.589844 182.554688 59.226562 C 182.894531 59.867188 183.203125 60.519531 183.480469 61.1875 C 183.757812 61.855469 184 62.535156 184.210938 63.230469 C 184.421875 63.921875 184.597656 64.625 184.738281 65.332031 C 184.878906 66.042969 184.984375 66.757812 185.058594 67.480469 C 185.128906 68.199219 185.164062 68.921875 185.164062 69.644531 Z M 185.164062 69.644531 " fill-opacity="1" fill-rule="nonzero"/></g></svg>