<svg xmlns="http://www.w3.org/2000/svg" xmlns:xlink="http://www.w3.org/1999/xlink" width="297" zoomAndPan="magnify" viewBox="0 0 222.75 225" height="300" preserveAspectRatio="xMidYMid meet" version="1.0"><defs><clipPath id="c7a4533769"><path d="M 9 53 L 213 53 L 213 172.40625 L 9 172.40625 Z M 9 53 " clip-rule="nonzero"/></clipPath><clipPath id="02e000dcde"><path d="M 13 102 L 213.359375 102 L 213.359375 172 L 13 172 Z M 13 102 " clip-rule="nonzero"/></clipPath><clipPath id="5612b8afee"><path d="M 9 52.542969 L 213.359375 52.542969 L 213.359375 172.40625 L 9 172.40625 Z M 9 52.542969 " clip-rule="nonzero"/></clipPath></defs><g clip-path="url(#c7a4533769)"><path fill="#f4f4f4" d="M 17.699219 172.371094 C 17.679688 172.371094 17.660156 172.363281 17.640625 172.351562 C 17.628906 172.34375 17.617188 172.335938 17.605469 172.324219 L 17.605469 172.300781 L 17.570312 172.265625 L 10.183594 155.6875 C 9.546875 154.257812 9.210938 152.761719 9.167969 151.195312 C 9.128906 149.632812 9.386719 148.121094 9.945312 146.660156 L 19.8125 121.039062 L 19.582031 120.988281 C 19.53125 120.980469 19.484375 120.96875 19.4375 120.949219 C 19.214844 120.867188 19.042969 120.722656 18.921875 120.515625 C 18.800781 120.308594 18.757812 120.089844 18.792969 119.851562 C 18.871094 119.292969 18.9375 118.796875 19.03125 118.246094 L 18.636719 118.144531 L 18.558594 118.378906 C 18.460938 118.675781 18.359375 118.976562 18.253906 119.269531 C 18.210938 119.40625 18.132812 119.511719 18.019531 119.597656 C 17.902344 119.679688 17.773438 119.71875 17.632812 119.710938 C 17.601562 119.710938 17.574219 119.710938 17.542969 119.707031 C 17.335938 119.6875 17.15625 119.601562 17.007812 119.457031 C 16.855469 119.3125 16.765625 119.132812 16.738281 118.925781 C 16.714844 118.703125 16.71875 118.484375 16.75 118.261719 C 17.378906 114.410156 17.894531 111.847656 19.714844 108.714844 C 20.628906 107.117188 21.75 105.675781 23.074219 104.390625 C 24.398438 103.109375 25.875 102.035156 27.5 101.167969 C 31.785156 98.964844 35.75 97.25 39.585938 95.59375 C 41.464844 94.78125 43.46875 93.90625 45.492188 92.988281 C 46.933594 92.417969 48.421875 91.996094 49.949219 91.722656 L 50.082031 91.699219 L 50.367188 90.441406 C 50.46875 89.972656 50.574219 89.507812 50.683594 89.042969 L 50.714844 88.90625 L 50.597656 88.828125 C 49.613281 88.183594 48.796875 87.371094 48.148438 86.390625 C 47.570312 85.449219 47.214844 84.429688 47.074219 83.335938 C 46.9375 82.242188 47.03125 81.167969 47.351562 80.113281 C 47.367188 80.0625 47.390625 80.007812 47.414062 79.957031 L 47.472656 79.8125 L 47.421875 79.707031 C 47.078125 78.34375 46.898438 76.960938 46.882812 75.554688 C 46.851562 73.40625 47.164062 70.304688 48.839844 67.707031 C 49.664062 66.457031 50.71875 65.441406 51.996094 64.660156 C 53.265625 63.921875 54.621094 63.425781 56.066406 63.175781 L 56.105469 63.167969 L 56.140625 63.144531 C 58.316406 61.6875 61.121094 60.914062 64.246094 60.914062 C 64.898438 60.914062 65.566406 60.949219 66.234375 61.015625 C 72.890625 61.679688 78.546875 65.246094 81 70.324219 C 82.492188 73.429688 82.707031 76.925781 82.625 79.308594 C 82.496094 82.960938 81.492188 85.777344 79.640625 87.675781 C 79.617188 87.695312 79.589844 87.703125 79.558594 87.703125 C 79.511719 87.703125 79.46875 87.6875 79.4375 87.65625 C 79.421875 87.640625 79.417969 87.625 79.421875 87.605469 C 79.546875 86.675781 79.574219 85.742188 79.496094 84.808594 C 79.449219 84.382812 79.367188 83.960938 79.25 83.546875 L 79.0625 82.878906 L 78.859375 83.542969 C 78.460938 84.914062 77.746094 86.089844 76.710938 87.066406 L 76.660156 87.113281 L 76.644531 87.179688 C 76.363281 88.605469 75.988281 90.003906 75.519531 91.375 L 75.433594 91.636719 L 99.460938 92.558594 L 100.265625 84.351562 L 100.179688 84.28125 C 99.160156 83.429688 98.320312 82.429688 97.652344 81.28125 C 97.027344 80.285156 96.585938 79.21875 96.320312 78.074219 C 96.175781 77.363281 96.109375 76.367188 96.59375 75.675781 C 96.625 75.628906 96.660156 75.585938 96.703125 75.550781 L 96.882812 75.375 L 96.695312 75.207031 L 96.660156 75.183594 C 96.277344 74.796875 95.972656 74.355469 95.75 73.863281 C 95.296875 72.863281 95.183594 71.824219 95.410156 70.75 C 95.523438 70.230469 95.730469 69.753906 96.03125 69.3125 C 96.058594 69.269531 96.09375 69.230469 96.128906 69.1875 C 96.1875 69.117188 96.242188 69.042969 96.289062 68.964844 C 96.433594 68.742188 96.421875 68.527344 96.25 68.324219 L 96.183594 68.214844 C 96.003906 67.933594 95.839844 67.644531 95.695312 67.347656 C 95.339844 66.574219 94.855469 65.078125 95.574219 63.757812 C 95.898438 63.144531 96.386719 62.714844 97.039062 62.472656 C 97.082031 62.460938 97.128906 62.449219 97.175781 62.4375 C 97.320312 62.417969 97.453125 62.367188 97.574219 62.285156 C 97.804688 62.066406 97.738281 61.710938 97.6875 61.449219 C 97.671875 61.382812 97.664062 61.3125 97.65625 61.246094 C 97.605469 60.664062 97.683594 60.101562 97.886719 59.554688 C 98.089844 59.007812 98.402344 58.53125 98.820312 58.125 C 99.5625 57.46875 100.425781 57.148438 101.410156 57.164062 C 101.628906 57.164062 101.847656 57.183594 102.066406 57.214844 C 102.148438 57.230469 102.230469 57.253906 102.308594 57.277344 C 102.480469 57.335938 102.65625 57.371094 102.835938 57.378906 C 103.023438 57.390625 103.179688 57.320312 103.296875 57.171875 C 103.382812 57.050781 103.460938 56.925781 103.523438 56.792969 C 103.570312 56.6875 103.628906 56.589844 103.691406 56.492188 C 104 56.066406 104.375 55.714844 104.824219 55.441406 C 105.753906 54.871094 106.757812 54.671875 107.832031 54.84375 C 107.988281 54.875 108.140625 54.917969 108.289062 54.96875 C 108.421875 55.011719 108.558594 55.058594 108.699219 55.089844 C 108.742188 55.097656 108.785156 55.101562 108.828125 55.101562 C 109.121094 55.066406 109.335938 54.921875 109.472656 54.660156 C 109.511719 54.601562 109.558594 54.546875 109.605469 54.496094 C 110.003906 54.074219 110.480469 53.773438 111.03125 53.589844 C 111.417969 53.457031 111.816406 53.394531 112.222656 53.398438 C 113.015625 53.398438 113.75 53.601562 114.425781 54.011719 C 114.675781 54.171875 114.90625 54.351562 115.125 54.554688 C 115.257812 54.695312 115.417969 54.777344 115.609375 54.796875 C 115.824219 54.773438 115.996094 54.671875 116.121094 54.492188 C 116.460938 54.101562 116.871094 53.800781 117.347656 53.59375 C 117.792969 53.40625 118.261719 53.320312 118.746094 53.328125 C 119.339844 53.332031 119.917969 53.433594 120.480469 53.628906 C 121.402344 53.933594 122.050781 54.53125 122.429688 55.421875 C 122.453125 55.488281 122.476562 55.554688 122.496094 55.621094 C 122.578125 55.898438 122.683594 56.246094 122.988281 56.332031 C 123.027344 56.34375 123.070312 56.347656 123.109375 56.347656 C 123.234375 56.339844 123.351562 56.3125 123.464844 56.265625 C 123.503906 56.25 123.542969 56.238281 123.582031 56.226562 C 123.738281 56.195312 123.894531 56.171875 124.050781 56.160156 C 124.183594 56.144531 124.316406 56.136719 124.449219 56.136719 C 124.941406 56.140625 125.417969 56.226562 125.882812 56.394531 C 127.015625 56.765625 127.867188 57.476562 128.441406 58.523438 C 128.972656 59.582031 128.984375 60.65625 128.472656 61.476562 C 128.382812 61.570312 128.332031 61.683594 128.324219 61.816406 C 128.320312 61.945312 128.355469 62.0625 128.4375 62.167969 C 128.527344 62.277344 128.636719 62.367188 128.757812 62.441406 C 128.804688 62.46875 128.84375 62.496094 128.878906 62.523438 C 129.117188 62.710938 129.339844 62.914062 129.546875 63.136719 C 129.976562 63.574219 130.3125 64.078125 130.550781 64.644531 C 130.773438 65.171875 130.851562 65.71875 130.78125 66.285156 C 130.710938 66.855469 130.503906 67.367188 130.160156 67.824219 C 130.066406 67.964844 130.027344 68.121094 130.039062 68.289062 C 130.054688 68.457031 130.117188 68.601562 130.230469 68.726562 C 130.273438 68.792969 130.3125 68.863281 130.347656 68.933594 C 130.472656 69.199219 130.5625 69.472656 130.613281 69.757812 C 130.722656 70.335938 130.691406 70.902344 130.519531 71.464844 C 130.207031 72.429688 129.503906 73.292969 128.375 74.097656 L 128.285156 74.164062 L 128.289062 74.273438 C 128.355469 76.109375 128.324219 77.972656 128.292969 79.769531 L 128.289062 80.03125 C 128.242188 82.929688 128.03125 86.6875 126.796875 90.046875 C 126.503906 90.847656 126.117188 91.605469 125.640625 92.3125 L 125.40625 92.660156 L 149.691406 90.996094 L 149.621094 90.753906 C 148.660156 87.414062 147.933594 84.03125 147.429688 80.59375 L 147.414062 80.492188 L 147.320312 80.445312 C 144.902344 79.203125 143.234375 76.660156 142.851562 73.640625 C 142.679688 72.328125 142.75 71.027344 143.0625 69.742188 C 143.378906 68.457031 143.917969 67.273438 144.679688 66.191406 C 145.441406 65.105469 146.398438 64.226562 147.542969 63.558594 C 148.550781 63.007812 149.601562 62.550781 150.6875 62.175781 L 151.152344 62 C 151.691406 61.796875 152.230469 61.574219 152.753906 61.355469 C 153.515625 61.035156 154.304688 60.703125 155.101562 60.445312 C 156.398438 60.019531 157.726562 59.738281 159.085938 59.601562 C 159.515625 59.5625 159.941406 59.542969 160.355469 59.542969 C 162.15625 59.542969 164.632812 59.933594 166.214844 61.796875 L 166.28125 61.875 L 166.382812 61.867188 C 166.632812 61.851562 166.882812 61.84375 167.132812 61.84375 C 168.554688 61.816406 169.910156 62.113281 171.199219 62.726562 C 172.59375 63.421875 173.605469 64.484375 174.230469 65.917969 C 174.792969 67.3125 175.140625 68.765625 175.269531 70.265625 C 175.503906 72.292969 175.601562 74.371094 175.695312 76.382812 C 175.714844 76.851562 175.765625 77.882812 175.765625 77.882812 L 175.835938 77.9375 C 177.175781 79.058594 177.050781 81.835938 176.53125 83.453125 C 176.054688 84.746094 175.414062 85.953125 174.609375 87.070312 L 174.5625 87.132812 L 174.570312 87.210938 C 174.664062 88.015625 174.769531 88.828125 174.90625 89.773438 L 174.925781 89.921875 L 175.074219 89.945312 C 177.699219 90.363281 180.210938 91.144531 182.605469 92.292969 C 186.886719 94.324219 194.542969 98.125 199.007812 100.402344 C 202.332031 102.203125 205.199219 104.5625 207.605469 107.480469 C 209.488281 109.867188 209.910156 111.101562 210.390625 114.101562 C 210.75 116.375 211.136719 120.589844 210.304688 121.941406 C 210.273438 121.984375 210.238281 122.027344 210.199219 122.0625 L 210.132812 122.128906 L 212.042969 147.046875 L 212.648438 155 C 212.894531 158.160156 212.683594 161.289062 212.015625 164.386719 L 209.238281 172.152344 L 209.175781 172.152344 L 209.171875 172.308594 C 209.164062 172.320312 209.15625 172.328125 209.144531 172.335938 L 209.136719 172.34375 C 209.117188 172.359375 209.09375 172.367188 209.066406 172.371094 L 153.949219 172.371094 L 153.90625 172.359375 L 153.863281 172.332031 L 153.851562 172.304688 L 153.824219 172.277344 C 153.824219 172.28125 153.828125 172.285156 153.828125 172.289062 L 153.824219 172.273438 C 153.824219 172.265625 153.820312 172.261719 153.820312 172.257812 C 153.722656 171.550781 152.019531 159.253906 151.222656 152.105469 C 150.421875 144.925781 149.816406 137.820312 149.421875 130.988281 L 149.410156 130.773438 L 138.773438 131.992188 L 138.78125 132.179688 C 138.921875 136.953125 138.960938 141.515625 138.894531 145.75 C 138.75 155.511719 137.949219 167.367188 137.613281 172.011719 C 137.605469 172.117188 137.601562 172.191406 137.597656 172.230469 L 137.578125 172.296875 L 137.578125 172.304688 C 137.578125 172.304688 137.554688 172.332031 137.546875 172.339844 L 137.5 172.367188 L 86.433594 172.371094 L 86.425781 172.363281 L 86.367188 172.347656 C 86.351562 172.335938 86.34375 172.324219 86.335938 172.316406 C 86.328125 172.300781 86.320312 172.28125 86.3125 172.265625 L 83.613281 142 L 74.398438 136.136719 L 65.714844 172.25 L 65.691406 172.304688 L 65.667969 172.328125 L 65.660156 172.339844 L 65.644531 172.34375 L 65.597656 172.375 Z M 17.699219 172.371094 " fill-opacity="1" fill-rule="nonzero"/></g><g clip-path="url(#02e000dcde)"><path fill="#ffc329" d="M 37.449219 171.632812 L 34.203125 171.632812 L 27.476562 151.53125 L 36.644531 131.507812 C 36.660156 131.476562 36.664062 131.441406 36.652344 131.40625 C 36.636719 131.371094 36.617188 131.347656 36.582031 131.332031 C 36.566406 131.324219 36.550781 131.324219 36.53125 131.324219 C 36.472656 131.324219 36.433594 131.347656 36.410156 131.402344 L 29.660156 146.152344 L 13.25 139.015625 L 20.382812 120.476562 L 20.457031 120.445312 C 20.628906 120.367188 20.765625 120.253906 20.871094 120.101562 C 21.519531 119.160156 21.886719 117.925781 22.234375 116.640625 C 22.292969 116.414062 22.386719 116.078125 22.507812 115.675781 L 22.90625 115.765625 C 22.769531 116.632812 22.675781 117.503906 22.628906 118.382812 C 22.542969 118.824219 22.664062 119.203125 22.988281 119.515625 C 23.097656 119.597656 23.21875 119.636719 23.355469 119.640625 C 23.429688 119.640625 23.5 119.625 23.574219 119.601562 C 24.078125 119.335938 24.40625 118.925781 24.554688 118.375 C 24.914062 117.246094 25.207031 116.15625 25.5 115.050781 C 25.503906 115.039062 25.523438 114.953125 25.523438 114.953125 L 25.925781 115.027344 C 25.769531 115.871094 25.746094 116.71875 25.851562 117.566406 C 25.886719 117.777344 25.976562 117.953125 26.121094 118.105469 C 26.265625 118.257812 26.441406 118.351562 26.648438 118.390625 C 26.71875 118.40625 26.785156 118.410156 26.855469 118.414062 C 27.21875 118.414062 27.492188 118.261719 27.679688 117.953125 C 28.273438 116.992188 28.535156 115.773438 28.792969 114.597656 L 28.933594 113.972656 C 29.609375 111.003906 30.960938 108.386719 32.988281 106.121094 L 33.476562 105.558594 L 33.257812 106.773438 L 33.152344 107.355469 C 33.058594 107.855469 32.960938 108.382812 32.796875 109.246094 C 32.664062 110.097656 32.671875 111.175781 33.078125 111.683594 C 33.230469 111.882812 33.4375 111.984375 33.6875 111.988281 L 33.730469 111.988281 C 34.808594 111.988281 35.167969 110.765625 35.546875 109.472656 L 35.753906 109.480469 L 35.558594 109.421875 C 35.753906 108.59375 36.070312 107.8125 36.5 107.082031 C 36.886719 106.507812 37.34375 106 37.871094 105.558594 C 38.179688 105.289062 38.460938 105 38.71875 104.683594 L 38.78125 104.605469 L 38.859375 104.605469 L 43.710938 103.550781 L 47.859375 102.648438 C 48.488281 105.96875 48.820312 109.316406 48.851562 112.695312 C 48.828125 114.792969 48.707031 118.746094 48.1875 121.328125 C 47.457031 124.984375 37.335938 171.101562 37.335938 171.101562 Z M 212.550781 151.882812 C 212.308594 149.046875 212.042969 146.46875 212.042969 146.46875 L 210.148438 121.757812 L 209.980469 121.738281 C 209.785156 121.71875 209.628906 121.632812 209.503906 121.480469 L 209.484375 121.445312 L 209.144531 121.121094 L 209.117188 121.558594 C 209.070312 122.316406 208.996094 123.066406 208.898438 123.78125 C 208.863281 124.035156 208.75 124.25 208.566406 124.425781 C 208.378906 124.605469 208.160156 124.707031 207.90625 124.730469 C 207.871094 124.734375 207.835938 124.734375 207.800781 124.734375 L 207.785156 124.734375 C 207.59375 124.742188 207.417969 124.691406 207.261719 124.585938 C 207.105469 124.476562 206.992188 124.332031 206.929688 124.15625 C 206.542969 123.132812 206.519531 121.835938 206.523438 120.597656 C 206.523438 120.363281 206.523438 120.023438 206.515625 119.609375 L 206.109375 119.585938 C 206 120.519531 205.847656 121.4375 205.667969 122.234375 C 205.625 122.683594 205.410156 123.027344 205.027344 123.261719 C 204.933594 123.304688 204.835938 123.324219 204.734375 123.324219 C 204.613281 123.324219 204.5 123.292969 204.398438 123.226562 C 203.992188 122.871094 203.789062 122.425781 203.796875 121.886719 C 203.742188 120.820312 203.746094 119.785156 203.753906 118.78125 L 203.753906 118.390625 L 203.347656 118.371094 C 203.28125 119.253906 203.074219 120.101562 202.734375 120.921875 C 202.640625 121.121094 202.503906 121.285156 202.316406 121.402344 C 202.128906 121.523438 201.921875 121.582031 201.703125 121.578125 L 201.648438 121.578125 C 201.464844 121.574219 201.296875 121.515625 201.148438 121.40625 C 201.003906 121.296875 200.902344 121.152344 200.847656 120.976562 C 200.523438 119.9375 200.589844 118.726562 200.65625 117.558594 C 200.65625 117.558594 200.679688 117.042969 200.6875 116.933594 C 200.835938 114.011719 200.210938 111.265625 198.808594 108.699219 L 198.484375 108.085938 L 198.378906 109.3125 C 198.316406 109.988281 198.269531 110.527344 198.179688 111.582031 L 198.164062 111.773438 C 198.105469 112.445312 197.8125 113.609375 197.25 114.0625 C 197.09375 114.191406 196.910156 114.261719 196.703125 114.261719 C 196.660156 114.261719 196.617188 114.261719 196.574219 114.253906 C 195.535156 114.109375 195.441406 113.070312 195.417969 111.5 C 195.449219 110.671875 195.351562 109.855469 195.125 109.058594 C 194.933594 108.527344 194.667969 108.03125 194.339844 107.570312 L 194.304688 107.519531 L 183.453125 103.1875 L 183.375 103.375 C 182.671875 105.105469 178.664062 113.804688 169.042969 114.933594 C 168.058594 115.050781 167.070312 115.113281 166.078125 115.117188 C 162.4375 115.117188 159.652344 114.179688 157.792969 112.332031 C 155.433594 109.984375 155.261719 106.894531 155.296875 105.675781 L 155.304688 105.382812 L 137.867188 111.214844 L 137.882812 111.375 C 138.070312 113.527344 138.714844 121.296875 139.027344 131.027344 L 139.035156 131.25 L 149.65625 130.035156 L 149.648438 129.84375 C 149.246094 122.632812 149.234375 118.457031 149.234375 118.417969 C 149.238281 118.335938 149.28125 118.292969 149.363281 118.289062 C 149.449219 118.289062 149.492188 118.332031 149.492188 118.417969 C 149.492188 118.546875 149.519531 131.667969 151.742188 151.589844 C 152.546875 158.816406 154.234375 170.945312 154.304688 171.457031 L 154.328125 171.632812 L 209.273438 171.632812 L 212.386719 163.394531 L 213.003906 157.839844 C 213.003906 157.839844 212.792969 154.71875 212.550781 151.882812 Z M 70.839844 108.128906 L 67.734375 106.613281 L 65.121094 105.273438 C 64.953125 105.4375 64.792969 114.199219 64.605469 114.347656 C 64.386719 116.1875 64.136719 118.035156 64.136719 118.035156 L 52.75 171.300781 L 52.53125 171.632812 L 65.75 171.632812 L 76.671875 126.214844 C 76.691406 126.140625 76.742188 126.105469 76.824219 126.117188 L 76.832031 126.117188 C 76.910156 126.140625 76.941406 126.191406 76.925781 126.269531 L 74.730469 135.390625 L 83.851562 141.191406 L 81.371094 113.289062 Z M 70.839844 108.128906 " fill-opacity="1" fill-rule="nonzero"/></g><g clip-path="url(#5612b8afee)"><path fill="#000000" d="M 213.121094 154.503906 L 212.515625 146.578125 L 212.515625 146.554688 L 210.613281 121.730469 C 210.660156 121.679688 210.707031 121.625 210.746094 121.570312 C 211.808594 119.835938 210.957031 114.222656 210.859375 113.589844 C 210.371094 110.546875 209.9375 109.292969 208.03125 106.875 C 205.605469 103.933594 202.71875 101.554688 199.367188 99.742188 C 194.820312 97.425781 187.144531 93.613281 182.957031 91.628906 C 180.546875 90.472656 178.015625 89.683594 175.375 89.265625 C 175.253906 88.4375 175.140625 87.59375 175.039062 86.707031 C 175.859375 85.574219 176.507812 84.351562 176.992188 83.039062 C 177.550781 81.296875 177.621094 78.460938 176.230469 77.300781 C 176.105469 74.792969 176.027344 72.265625 175.738281 69.761719 C 175.609375 68.238281 175.253906 66.769531 174.679688 65.351562 C 174.035156 63.878906 172.996094 62.78125 171.554688 62.0625 C 169.992188 61.332031 168.355469 61.039062 166.636719 61.183594 C 164.859375 59.09375 161.925781 58.679688 159.332031 58.917969 C 157.957031 59.054688 156.617188 59.339844 155.304688 59.773438 C 153.957031 60.210938 152.675781 60.832031 151.347656 61.332031 C 150.089844 61.753906 148.878906 62.277344 147.707031 62.902344 C 146.535156 63.585938 145.558594 64.484375 144.78125 65.59375 C 144.003906 66.699219 143.457031 67.90625 143.136719 69.214844 C 142.816406 70.523438 142.742188 71.847656 142.917969 73.1875 C 143.28125 76.097656 144.847656 78.789062 147.496094 80.144531 C 148 83.589844 148.730469 86.984375 149.691406 90.332031 L 126.074219 91.949219 C 126.5625 91.226562 126.957031 90.457031 127.253906 89.636719 C 128.425781 86.453125 128.703125 82.929688 128.757812 79.554688 C 128.789062 77.660156 128.832031 75.71875 128.757812 73.785156 C 129.800781 73.117188 130.539062 72.207031 130.980469 71.046875 C 131.160156 70.453125 131.195312 69.851562 131.078125 69.242188 C 131.027344 68.941406 130.933594 68.648438 130.800781 68.371094 C 130.652344 68.050781 130.347656 67.8125 130.59375 67.464844 C 130.960938 66.980469 131.179688 66.433594 131.253906 65.832031 C 131.324219 65.226562 131.246094 64.648438 131.007812 64.085938 C 130.757812 63.496094 130.410156 62.972656 129.960938 62.515625 C 129.746094 62.289062 129.515625 62.078125 129.269531 61.882812 C 129.121094 61.792969 128.988281 61.6875 128.863281 61.5625 C 128.722656 61.382812 128.804688 61.277344 128.910156 61.105469 C 129.183594 60.613281 129.316406 60.085938 129.316406 59.527344 C 129.3125 58.964844 129.167969 58.441406 128.890625 57.953125 C 128.292969 56.855469 127.402344 56.113281 126.214844 55.722656 C 125.59375 55.496094 124.957031 55.414062 124.300781 55.476562 C 124.132812 55.488281 123.964844 55.515625 123.800781 55.546875 C 123.660156 55.582031 123.453125 55.695312 123.308594 55.65625 C 123.042969 55.582031 122.980469 55.097656 122.882812 54.863281 C 122.480469 53.914062 121.789062 53.28125 120.8125 52.957031 C 119.722656 52.539062 118.628906 52.53125 117.53125 52.925781 C 117.03125 53.144531 116.597656 53.460938 116.234375 53.878906 C 115.96875 54.171875 115.828125 54.195312 115.53125 53.921875 C 115.300781 53.714844 115.058594 53.527344 114.796875 53.359375 C 114.261719 53.03125 113.683594 52.828125 113.0625 52.75 C 112.441406 52.675781 111.828125 52.730469 111.230469 52.917969 C 110.648438 53.113281 110.144531 53.429688 109.722656 53.878906 C 109.515625 54.097656 109.355469 54.484375 109.007812 54.410156 C 108.710938 54.34375 108.4375 54.214844 108.132812 54.164062 C 107.003906 53.984375 105.957031 54.191406 104.984375 54.789062 C 104.511719 55.078125 104.117188 55.445312 103.792969 55.894531 C 103.640625 56.109375 103.554688 56.375 103.398438 56.566406 C 103.179688 56.855469 102.667969 56.582031 102.363281 56.535156 C 101.75 56.429688 101.144531 56.460938 100.546875 56.628906 C 99.949219 56.796875 99.417969 57.085938 98.949219 57.492188 C 98.507812 57.921875 98.179688 58.421875 97.964844 58.996094 C 97.75 59.570312 97.667969 60.164062 97.71875 60.777344 C 97.730469 61.015625 97.90625 61.464844 97.703125 61.648438 C 97.554688 61.722656 97.398438 61.773438 97.230469 61.804688 C 97.097656 61.855469 96.964844 61.914062 96.839844 61.984375 C 96.335938 62.273438 95.941406 62.671875 95.660156 63.183594 C 95.015625 64.367188 95.234375 65.773438 95.773438 66.953125 C 95.933594 67.28125 96.113281 67.597656 96.3125 67.902344 C 96.421875 68.085938 96.5 68.175781 96.378906 68.382812 C 96.3125 68.496094 96.207031 68.605469 96.128906 68.71875 C 95.8125 69.179688 95.597656 69.683594 95.476562 70.230469 C 95.242188 71.347656 95.359375 72.425781 95.828125 73.464844 C 96.066406 73.988281 96.386719 74.453125 96.792969 74.859375 C 96.8125 74.875 96.832031 74.886719 96.851562 74.898438 C 96.792969 74.953125 96.738281 75.011719 96.695312 75.078125 C 96.1875 75.796875 96.222656 76.808594 96.386719 77.636719 C 96.65625 78.800781 97.109375 79.890625 97.746094 80.90625 C 98.421875 82.078125 99.28125 83.097656 100.320312 83.964844 L 99.542969 91.871094 L 75.980469 90.964844 C 76.453125 89.582031 76.828125 88.171875 77.113281 86.742188 C 78.175781 85.734375 78.914062 84.53125 79.320312 83.125 C 79.433594 83.527344 79.511719 83.933594 79.558594 84.347656 C 79.636719 85.269531 79.613281 86.1875 79.488281 87.101562 C 79.445312 87.398438 79.867188 87.527344 80.050781 87.339844 C 82.234375 85.101562 82.988281 81.878906 83.09375 78.835938 C 83.199219 75.785156 82.78125 72.527344 81.449219 69.757812 C 78.707031 64.082031 72.574219 60.9375 66.519531 60.332031 C 63.003906 59.984375 59.273438 60.496094 56.292969 62.496094 C 54.820312 62.746094 53.441406 63.25 52.152344 64.007812 C 50.851562 64.804688 49.777344 65.84375 48.933594 67.117188 C 47.429688 69.449219 46.902344 72.339844 46.945312 75.078125 C 46.960938 76.507812 47.144531 77.914062 47.496094 79.300781 C 47.496094 79.320312 47.507812 79.328125 47.515625 79.339844 C 47.484375 79.421875 47.449219 79.492188 47.421875 79.574219 C 47.089844 80.65625 46.992188 81.761719 47.136719 82.886719 C 47.277344 84.011719 47.648438 85.054688 48.242188 86.019531 C 48.90625 87.027344 49.742188 87.859375 50.75 88.519531 C 50.554688 89.359375 50.371094 90.199219 50.175781 91.042969 C 48.632812 91.320312 47.132812 91.746094 45.671875 92.320312 C 43.683594 93.226562 41.695312 94.09375 39.769531 94.925781 C 35.917969 96.589844 31.933594 98.316406 27.675781 100.507812 C 26.03125 101.382812 24.539062 102.46875 23.199219 103.765625 C 21.863281 105.058594 20.730469 106.515625 19.804688 108.132812 C 17.960938 111.304688 17.449219 113.882812 16.816406 117.753906 C 16.78125 117.992188 16.777344 118.230469 16.800781 118.472656 C 16.835938 118.726562 16.945312 118.941406 17.128906 119.121094 C 17.3125 119.300781 17.53125 119.402344 17.789062 119.429688 C 17.992188 119.460938 18.179688 119.421875 18.355469 119.316406 C 18.53125 119.207031 18.648438 119.054688 18.710938 118.859375 C 18.84375 118.484375 18.972656 118.105469 19.097656 117.730469 C 19 118.296875 18.929688 118.796875 18.859375 119.34375 C 18.8125 119.625 18.863281 119.890625 19.007812 120.136719 C 19.152344 120.382812 19.355469 120.558594 19.625 120.65625 C 19.679688 120.679688 19.742188 120.699219 19.804688 120.710938 L 10.023438 146.105469 C 9.453125 147.59375 9.191406 149.132812 9.230469 150.722656 C 9.273438 152.3125 9.617188 153.835938 10.261719 155.292969 L 17.660156 171.898438 C 17.660156 171.902344 17.667969 171.902344 17.667969 171.910156 C 17.695312 171.957031 17.730469 171.996094 17.773438 172.03125 C 17.785156 172.039062 17.796875 172.042969 17.808594 172.050781 C 17.855469 172.078125 17.910156 172.09375 17.964844 172.097656 L 65.847656 172.097656 C 65.890625 172.097656 65.929688 172.089844 65.964844 172.070312 C 65.980469 172.070312 65.992188 172.054688 66.007812 172.050781 C 66.03125 172.042969 66.050781 172.03125 66.066406 172.011719 C 66.078125 171.996094 66.09375 171.988281 66.101562 171.976562 C 66.117188 171.960938 66.132812 171.941406 66.140625 171.917969 C 66.144531 171.902344 66.152344 171.882812 66.160156 171.871094 C 66.167969 171.863281 66.171875 171.851562 66.171875 171.84375 L 74.796875 135.984375 L 83.683594 141.636719 L 86.367188 171.789062 L 86.386719 171.851562 C 86.394531 171.871094 86.394531 171.882812 86.398438 171.902344 L 86.441406 171.964844 C 86.453125 171.976562 86.460938 171.988281 86.472656 172.003906 C 86.492188 172.023438 86.515625 172.039062 86.539062 172.050781 C 86.554688 172.054688 86.558594 172.0625 86.574219 172.070312 C 86.613281 172.089844 86.65625 172.097656 86.699219 172.097656 L 137.734375 172.097656 C 137.777344 172.097656 137.820312 172.089844 137.859375 172.070312 C 137.875 172.0625 137.878906 172.054688 137.894531 172.050781 C 137.917969 172.039062 137.941406 172.023438 137.960938 172.003906 C 137.972656 171.988281 137.980469 171.976562 137.992188 171.964844 C 138.007812 171.945312 138.023438 171.925781 138.03125 171.902344 C 138.039062 171.886719 138.042969 171.867188 138.046875 171.851562 L 138.066406 171.789062 C 138.074219 171.644531 139.191406 156.917969 139.363281 145.273438 C 139.4375 140.597656 139.375 135.96875 139.25 131.691406 L 149.484375 130.519531 C 149.804688 136.050781 150.347656 143.242188 151.285156 151.648438 C 152.105469 159.015625 153.867188 171.683594 153.886719 171.808594 C 153.890625 171.828125 153.894531 171.84375 153.902344 171.855469 C 153.90625 171.875 153.914062 171.894531 153.921875 171.910156 C 153.929688 171.933594 153.945312 171.953125 153.960938 171.96875 C 153.96875 171.980469 153.976562 171.992188 153.988281 172.003906 C 154.007812 172.019531 154.03125 172.035156 154.054688 172.050781 L 154.09375 172.070312 C 154.132812 172.089844 154.171875 172.097656 154.214844 172.097656 L 209.332031 172.097656 C 209.394531 172.097656 209.449219 172.078125 209.5 172.042969 C 209.511719 172.035156 209.519531 172.03125 209.535156 172.023438 C 209.582031 171.984375 209.617188 171.9375 209.640625 171.882812 C 209.640625 171.878906 209.640625 171.875 209.648438 171.875 L 212.480469 163.949219 C 213.152344 160.832031 213.363281 157.683594 213.121094 154.503906 Z M 51.050781 90.21875 C 51.183594 89.632812 51.308594 89.050781 51.441406 88.464844 C 51.457031 88.398438 51.453125 88.335938 51.429688 88.273438 C 51.40625 88.191406 51.359375 88.128906 51.289062 88.085938 C 49.277344 86.792969 47.847656 84.742188 47.75 82.296875 C 47.722656 81.699219 47.765625 81.101562 47.882812 80.511719 C 48 79.878906 48.148438 79.027344 48.820312 78.753906 C 50.199219 78.203125 51.234375 79.71875 51.855469 80.699219 C 52.484375 82.730469 53.472656 84.78125 55.519531 85.675781 C 55.726562 85.769531 56.050781 85.667969 56.027344 85.386719 C 55.84375 83.648438 55.972656 81.933594 56.40625 80.238281 C 56.671875 81.511719 57.144531 82.703125 57.820312 83.8125 C 58.5 84.925781 59.339844 85.886719 60.351562 86.707031 C 60.457031 86.808594 60.574219 86.828125 60.710938 86.773438 C 60.84375 86.71875 60.914062 86.621094 60.917969 86.472656 C 60.996094 83.882812 60.871094 81.179688 61.589844 78.660156 C 61.9375 77.394531 62.429688 76.191406 63.070312 75.042969 C 63.382812 74.488281 63.746094 73.96875 64.164062 73.484375 C 64.5625 72.929688 65.074219 72.511719 65.699219 72.234375 C 67.03125 71.78125 68.386719 72.8125 69.140625 73.824219 C 69.210938 73.917969 69.304688 73.964844 69.421875 73.96875 C 69.539062 73.972656 69.636719 73.929688 69.710938 73.839844 C 69.742188 73.828125 69.765625 73.808594 69.785156 73.785156 C 70.699219 72.925781 71.910156 72.394531 72.984375 73.292969 C 73.90625 74.050781 74.316406 75.25 74.617188 76.371094 C 75.3125 78.746094 75.644531 81.167969 75.613281 83.644531 C 75.617188 84.980469 75.308594 86.238281 74.683594 87.417969 C 74.609375 87.546875 74.617188 87.671875 74.707031 87.789062 C 74.796875 87.90625 74.914062 87.949219 75.054688 87.914062 C 75.496094 87.78125 75.914062 87.589844 76.304688 87.347656 C 74.835938 93.953125 71.0625 101.289062 64.921875 101.289062 C 60.085938 101.289062 56.785156 98.078125 54.867188 95.386719 C 54.8125 95.3125 54.742188 95.269531 54.648438 95.253906 C 54.558594 95.238281 54.476562 95.257812 54.402344 95.3125 C 54.328125 95.363281 54.28125 95.433594 54.265625 95.527344 C 54.25 95.617188 54.269531 95.699219 54.324219 95.773438 C 57.203125 99.816406 60.871094 101.953125 64.921875 101.953125 C 65.101562 101.953125 65.273438 101.945312 65.441406 101.933594 C 65.246094 102.839844 65.0625 103.738281 64.867188 104.644531 C 64.835938 104.789062 64.800781 104.9375 64.777344 105.082031 C 64.769531 105.097656 64.777344 105.105469 64.777344 105.117188 C 64.765625 105.15625 64.765625 105.191406 64.769531 105.230469 L 64.773438 105.230469 C 64.769531 105.246094 64.765625 105.257812 64.765625 105.273438 L 64.765625 105.472656 C 64.773438 108.320312 64.621094 111.160156 64.316406 113.992188 C 62.347656 115.554688 59.46875 116.097656 55.738281 115.601562 C 54.515625 115.433594 53.347656 115.078125 52.234375 114.535156 C 51.125 113.992188 50.125 113.285156 49.242188 112.421875 C 49.210938 109.128906 48.871094 105.867188 48.222656 102.636719 C 48.234375 102.621094 48.242188 102.605469 48.246094 102.585938 C 48.246094 102.578125 48.25 102.566406 48.253906 102.558594 C 48.613281 100.972656 48.972656 99.390625 49.332031 97.804688 C 49.90625 95.273438 50.476562 92.742188 51.050781 90.21875 Z M 71.476562 98.902344 L 70.625 107.515625 L 65.472656 104.992188 L 66.074219 102.152344 C 66.101562 102.054688 66.121094 101.960938 66.140625 101.859375 C 68.257812 101.488281 70.039062 100.503906 71.476562 98.902344 Z M 19.515625 119.4375 C 19.777344 117.492188 19.941406 116.214844 22.066406 110.273438 C 22.128906 110.085938 22.074219 109.949219 21.898438 109.859375 C 21.722656 109.773438 21.582031 109.808594 21.472656 109.972656 C 20.476562 111.492188 19.683594 113.875 18.84375 116.398438 C 18.597656 117.132812 18.347656 117.886719 18.085938 118.644531 C 18.074219 118.683594 18.035156 118.785156 17.859375 118.769531 C 17.636719 118.746094 17.503906 118.621094 17.46875 118.398438 C 17.445312 118.21875 17.449219 118.039062 17.472656 117.859375 C 18.085938 114.0625 18.59375 111.539062 20.382812 108.46875 C 21.277344 106.90625 22.367188 105.5 23.660156 104.246094 C 24.953125 102.992188 26.390625 101.945312 27.980469 101.101562 C 32.210938 98.921875 36.191406 97.199219 40.039062 95.53125 C 41.960938 94.699219 43.949219 93.839844 45.9375 92.933594 C 47.261719 92.410156 48.621094 92.019531 50.019531 91.757812 L 49.71875 93.074219 C 49.144531 95.597656 48.574219 98.125 48 100.65625 C 47.882812 101.175781 47.761719 101.695312 47.648438 102.21875 L 43.738281 103.074219 L 43.730469 103.074219 L 39.378906 104.023438 C 39.53125 103.710938 39.652344 103.386719 39.746094 103.050781 C 39.773438 102.964844 39.765625 102.878906 39.722656 102.800781 C 39.679688 102.71875 39.613281 102.664062 39.523438 102.640625 C 39.4375 102.613281 39.351562 102.621094 39.269531 102.664062 C 39.1875 102.710938 39.132812 102.777344 39.105469 102.867188 C 38.859375 103.828125 38.34375 104.609375 37.5625 105.21875 C 37.007812 105.6875 36.527344 106.21875 36.117188 106.824219 C 35.65625 107.605469 35.320312 108.441406 35.105469 109.328125 C 34.714844 110.683594 34.429688 111.523438 33.722656 111.523438 L 33.703125 111.523438 C 33.59375 111.523438 33.503906 111.476562 33.4375 111.390625 C 33.125 111 33.144531 109.933594 33.25 109.332031 C 33.476562 108.140625 33.578125 107.582031 33.710938 106.855469 L 34.007812 105.238281 C 34.039062 105.074219 33.980469 104.957031 33.835938 104.878906 C 33.6875 104.800781 33.558594 104.824219 33.441406 104.945312 C 30.820312 107.6875 29.246094 110.527344 28.480469 113.871094 L 28.339844 114.496094 C 28.09375 115.632812 27.835938 116.8125 27.289062 117.710938 C 27.160156 117.921875 26.980469 117.996094 26.742188 117.9375 C 26.488281 117.894531 26.34375 117.746094 26.304688 117.492188 C 26.199219 116.445312 26.265625 115.410156 26.511719 114.390625 C 27.011719 112 27.648438 109.644531 28.417969 107.328125 C 28.449219 107.246094 28.441406 107.164062 28.40625 107.085938 C 28.371094 107.003906 28.3125 106.949219 28.230469 106.917969 C 28.148438 106.882812 28.066406 106.882812 27.984375 106.914062 C 27.90625 106.949219 27.84375 107.003906 27.808594 107.082031 C 26.613281 109.601562 25.695312 112.21875 25.054688 114.933594 C 24.765625 116 24.472656 117.101562 24.113281 118.230469 C 24.003906 118.628906 23.777344 118.941406 23.429688 119.164062 C 23.367188 119.191406 23.308594 119.183594 23.257812 119.136719 C 23.0625 119.003906 23.082031 118.550781 23.089844 118.40625 C 23.292969 115.253906 23.945312 112.199219 25.039062 109.238281 C 25.074219 109.160156 25.074219 109.074219 25.042969 108.992188 C 25.011719 108.910156 24.953125 108.851562 24.875 108.8125 C 24.792969 108.777344 24.710938 108.773438 24.625 108.800781 C 24.539062 108.828125 24.476562 108.882812 24.433594 108.960938 C 23.25 111.285156 22.113281 115.335938 21.792969 116.519531 C 21.453125 117.765625 21.101562 118.957031 20.496094 119.835938 C 20.429688 119.941406 20.335938 120.015625 20.214844 120.050781 C 20.097656 120.089844 19.980469 120.085938 19.863281 120.035156 C 19.738281 119.992188 19.644531 119.914062 19.578125 119.800781 C 19.511719 119.6875 19.492188 119.566406 19.515625 119.4375 Z M 18.179688 171.429688 L 10.867188 155.023438 C 10.257812 153.648438 9.933594 152.210938 9.894531 150.707031 C 9.855469 149.203125 10.105469 147.75 10.640625 146.347656 L 13.269531 139.527344 L 29.277344 146.492188 L 27.035156 151.382812 C 27 151.460938 26.996094 151.542969 27.023438 151.628906 L 33.644531 171.429688 Z M 34.347656 171.429688 L 27.695312 151.542969 L 36.828125 131.59375 C 36.871094 131.507812 36.875 131.425781 36.84375 131.335938 C 36.8125 131.25 36.753906 131.1875 36.671875 131.148438 C 36.585938 131.109375 36.5 131.109375 36.414062 131.140625 C 36.328125 131.171875 36.265625 131.230469 36.222656 131.3125 L 29.558594 145.886719 L 13.507812 138.90625 L 20.542969 120.628906 C 20.746094 120.539062 20.914062 120.402344 21.039062 120.214844 C 21.707031 119.25 22.078125 118 22.429688 116.691406 C 22.492188 116.46875 22.585938 116.132812 22.703125 115.734375 C 22.566406 116.609375 22.472656 117.488281 22.425781 118.371094 C 22.332031 118.890625 22.480469 119.328125 22.871094 119.683594 C 23.105469 119.855469 23.359375 119.894531 23.636719 119.796875 C 24.210938 119.511719 24.582031 119.058594 24.746094 118.4375 C 25.113281 117.292969 25.414062 116.179688 25.699219 115.101562 C 25.703125 115.066406 25.71875 115.027344 25.726562 114.996094 C 25.566406 115.859375 25.542969 116.726562 25.652344 117.597656 C 25.691406 117.847656 25.796875 118.066406 25.972656 118.246094 C 26.148438 118.429688 26.363281 118.542969 26.609375 118.589844 C 26.851562 118.644531 27.089844 118.621094 27.316406 118.523438 C 27.546875 118.425781 27.722656 118.269531 27.855469 118.058594 C 28.464844 117.066406 28.734375 115.835938 28.992188 114.636719 L 29.132812 114.015625 C 29.800781 111.082031 31.140625 108.496094 33.144531 106.257812 L 33.058594 106.734375 C 32.925781 107.453125 32.824219 108.015625 32.597656 109.207031 C 32.597656 109.226562 32.273438 111.003906 32.917969 111.8125 C 33.113281 112.058594 33.367188 112.183594 33.683594 112.191406 L 33.730469 112.191406 C 34.96875 112.191406 35.359375 110.832031 35.746094 109.511719 C 35.9375 108.695312 36.246094 107.921875 36.671875 107.195312 C 37.046875 106.636719 37.492188 106.140625 38.007812 105.710938 C 38.324219 105.433594 38.613281 105.136719 38.878906 104.8125 C 38.890625 104.8125 38.902344 104.808594 38.914062 104.804688 L 43.5625 103.792969 L 44.214844 103.652344 L 47.546875 102.917969 C 48.945312 109.917969 48.875 116.902344 47.335938 123.875 L 36.898438 171.429688 Z M 74.960938 135.296875 L 77.125 126.316406 C 77.144531 126.230469 77.128906 126.144531 77.082031 126.066406 C 77.035156 125.992188 76.96875 125.941406 76.878906 125.917969 C 76.789062 125.898438 76.703125 125.910156 76.625 125.960938 C 76.546875 126.007812 76.496094 126.074219 76.472656 126.164062 L 65.585938 171.429688 L 53.085938 171.429688 L 63.71875 122.175781 C 64.886719 116.757812 65.472656 111.277344 65.476562 105.734375 L 67.269531 106.609375 L 67.941406 106.941406 L 70.75 108.3125 L 81.175781 113.421875 L 83.613281 140.796875 Z M 122.171875 94.246094 C 119.628906 95.359375 116.675781 95.492188 113.960938 95.113281 C 111.238281 94.726562 108.199219 93.8125 106.234375 91.78125 C 105.933594 91.46875 105.46875 91.941406 105.761719 92.25 C 107.570312 94.128906 110.265625 95.09375 112.769531 95.578125 C 114.363281 95.902344 115.972656 96.019531 117.597656 95.933594 C 117.539062 96.625 117.472656 97.324219 117.40625 98.015625 C 117.398438 98.128906 117.386719 98.242188 117.378906 98.355469 C 117.378906 98.449219 117.414062 98.527344 117.476562 98.59375 C 117.542969 98.65625 117.621094 98.6875 117.710938 98.691406 C 117.804688 98.6875 117.878906 98.652344 117.945312 98.589844 C 118.007812 98.523438 118.042969 98.449219 118.046875 98.355469 C 118.113281 97.578125 118.183594 96.796875 118.257812 96.019531 C 118.265625 95.980469 118.265625 95.933594 118.269531 95.886719 C 119.351562 95.789062 120.40625 95.570312 121.4375 95.234375 C 121.523438 95.207031 121.613281 95.167969 121.699219 95.132812 C 121.824219 96.339844 122.003906 100.109375 119.582031 102.878906 C 117.511719 105.242188 114.066406 106.328125 109.34375 106.097656 C 104.890625 105.882812 101.558594 104.464844 99.441406 101.878906 C 98.417969 100.601562 97.710938 99.167969 97.320312 97.578125 C 96.886719 95.886719 96.753906 94.171875 96.925781 92.433594 L 99.476562 92.527344 L 99.007812 97.191406 C 99.003906 97.242188 99.011719 97.292969 99.027344 97.34375 C 99.078125 97.472656 99.171875 97.542969 99.308594 97.558594 L 99.339844 97.558594 C 99.425781 97.558594 99.503906 97.53125 99.566406 97.472656 C 99.628906 97.414062 99.664062 97.34375 99.675781 97.257812 L 100.992188 83.917969 C 101.046875 83.800781 101.023438 83.699219 100.925781 83.617188 L 100.917969 83.609375 C 100.910156 83.601562 100.910156 83.597656 100.90625 83.589844 C 99.855469 82.746094 98.992188 81.738281 98.316406 80.574219 C 97.625 79.511719 97.175781 78.355469 96.972656 77.101562 C 96.886719 76.371094 96.972656 75.085938 97.964844 75.089844 C 98.609375 75.171875 99.191406 75.410156 99.707031 75.808594 C 100.347656 76.222656 100.890625 76.738281 101.34375 77.347656 C 101.378906 77.394531 101.425781 77.429688 101.476562 77.457031 C 101.777344 78.253906 102.007812 79.160156 102.800781 79.605469 C 102.996094 79.714844 103.207031 79.773438 103.429688 79.777344 C 103.652344 79.78125 103.863281 79.734375 104.0625 79.632812 C 104.261719 79.53125 104.425781 79.390625 104.554688 79.207031 C 104.683594 79.023438 104.761719 78.824219 104.789062 78.601562 C 104.996094 77.183594 105.050781 75.730469 105.195312 74.304688 C 105.34375 72.851562 105.507812 71.394531 105.6875 69.941406 C 105.84375 68.691406 105.828125 67.203125 106.886719 66.332031 C 107.773438 65.601562 108.996094 65.347656 110.09375 65.101562 C 112.882812 64.476562 115.703125 64.269531 118.554688 64.480469 C 121.402344 64.695312 124.160156 65.316406 126.828125 66.34375 L 126.855469 66.34375 C 128.210938 70.316406 128.117188 74.578125 128.105469 78.722656 C 128.15625 81.777344 127.832031 84.792969 127.132812 87.765625 C 126.75 89.257812 126.230469 90.816406 125.222656 92.015625 C 124.382812 93 123.363281 93.742188 122.171875 94.246094 Z M 182.679688 92.234375 C 186.859375 94.214844 194.523438 98.023438 199.066406 100.335938 C 202.332031 102.105469 205.148438 104.421875 207.511719 107.289062 C 209.328125 109.585938 209.734375 110.777344 210.199219 113.6875 C 210.65625 116.558594 210.84375 120.136719 210.179688 121.214844 C 210.148438 121.261719 210.105469 121.285156 210.050781 121.28125 C 209.992188 121.285156 209.9375 121.265625 209.894531 121.222656 L 209.378906 119.832031 C 209.394531 118.035156 209.289062 116.246094 209.0625 114.460938 C 209.046875 114.371094 209.007812 114.296875 208.933594 114.242188 C 208.863281 114.1875 208.78125 114.164062 208.6875 114.175781 C 208.597656 114.1875 208.523438 114.226562 208.46875 114.296875 C 208.410156 114.371094 208.386719 114.449219 208.394531 114.542969 C 208.816406 117.597656 208.832031 120.65625 208.441406 123.714844 C 208.417969 123.863281 208.351562 123.988281 208.242188 124.089844 C 208.132812 124.195312 208.003906 124.253906 207.855469 124.273438 C 207.617188 124.3125 207.453125 124.21875 207.363281 123.992188 C 207.003906 123.054688 206.976562 121.855469 206.984375 120.601562 C 206.992188 119.402344 206.964844 115.316406 206.417969 112.875 C 206.402344 112.789062 206.355469 112.722656 206.28125 112.671875 C 206.207031 112.625 206.128906 112.605469 206.039062 112.625 C 205.953125 112.640625 205.882812 112.683594 205.832031 112.753906 C 205.777344 112.824219 205.757812 112.902344 205.765625 112.988281 C 206.042969 116.066406 205.859375 119.113281 205.214844 122.136719 C 205.15625 122.386719 205.054688 122.742188 204.835938 122.835938 C 204.769531 122.875 204.703125 122.875 204.636719 122.835938 C 204.378906 122.5625 204.253906 122.242188 204.257812 121.867188 C 204.195312 120.722656 204.210938 119.609375 204.21875 118.539062 C 204.316406 115.84375 204.121094 113.171875 203.625 110.519531 C 203.609375 110.433594 203.566406 110.363281 203.496094 110.3125 C 203.425781 110.261719 203.347656 110.242188 203.257812 110.253906 C 203.171875 110.261719 203.101562 110.300781 203.046875 110.367188 C 202.988281 110.433594 202.960938 110.511719 202.964844 110.597656 C 203.105469 112.96875 203.101562 115.335938 202.953125 117.707031 C 202.910156 118.75 202.695312 119.757812 202.3125 120.730469 C 202.191406 121.007812 201.980469 121.136719 201.675781 121.117188 C 201.476562 121.117188 201.347656 121.023438 201.28125 120.835938 C 200.988281 119.890625 201.050781 118.71875 201.117188 117.578125 C 201.128906 117.367188 201.136719 117.160156 201.148438 116.953125 C 201.226562 115.292969 201.054688 113.65625 200.636719 112.046875 C 200.214844 110.441406 199.5625 108.929688 198.679688 107.523438 C 198.597656 107.386719 198.476562 107.335938 198.320312 107.367188 C 198.164062 107.402344 198.078125 107.5 198.0625 107.660156 L 197.917969 109.273438 C 197.855469 109.984375 197.804688 110.546875 197.703125 111.730469 C 197.648438 112.34375 197.382812 113.363281 196.964844 113.695312 C 196.871094 113.78125 196.761719 113.816406 196.636719 113.796875 C 195.953125 113.703125 195.898438 112.855469 195.878906 111.492188 C 195.910156 110.609375 195.804688 109.746094 195.5625 108.898438 C 195.320312 108.253906 194.992188 107.65625 194.570312 107.109375 C 193.964844 106.386719 193.675781 105.554688 193.699219 104.609375 C 193.695312 104.519531 193.664062 104.441406 193.597656 104.375 C 193.53125 104.3125 193.449219 104.28125 193.359375 104.285156 C 193.265625 104.285156 193.1875 104.316406 193.121094 104.382812 C 193.058594 104.453125 193.027344 104.53125 193.03125 104.625 C 193.015625 105.363281 193.179688 106.0625 193.523438 106.714844 L 178.175781 100.582031 C 176.878906 97.140625 175.976562 93.597656 175.472656 89.957031 C 177.984375 90.375 180.386719 91.132812 182.679688 92.234375 Z M 149.097656 85.101562 C 148.730469 83.382812 148.417969 81.652344 148.140625 79.914062 C 148.140625 79.882812 148.136719 79.851562 148.125 79.820312 C 147.972656 78.867188 147.832031 77.910156 147.714844 76.949219 C 149.929688 76.5 151.851562 75.488281 153.476562 73.914062 C 154.308594 73.097656 154.984375 72.171875 155.511719 71.132812 C 155.953125 70.253906 156.34375 69.175781 157.109375 68.523438 C 158.019531 67.75 159.675781 67.632812 160.449219 68.644531 C 160.464844 68.660156 160.480469 68.675781 160.503906 68.683594 C 160.550781 68.75 160.613281 68.789062 160.691406 68.800781 C 160.769531 68.816406 160.84375 68.800781 160.910156 68.757812 C 161.800781 68.238281 162.796875 68.050781 163.570312 68.855469 C 164.082031 69.46875 164.449219 70.15625 164.675781 70.921875 C 165.507812 73.210938 167.242188 75.503906 169.796875 75.929688 C 170 75.933594 170.195312 75.964844 170.390625 76.023438 C 170.542969 76.125 170.597656 76.421875 170.644531 76.589844 C 170.75 76.941406 170.835938 77.296875 170.914062 77.65625 C 171.113281 78.578125 171.214844 79.515625 171.222656 80.460938 L 171.222656 80.464844 C 171.21875 80.511719 171.230469 80.550781 171.25 80.59375 C 171.257812 80.613281 171.269531 80.628906 171.28125 80.644531 C 171.320312 80.699219 171.367188 80.742188 171.429688 80.773438 C 171.546875 80.816406 171.660156 80.796875 171.761719 80.71875 C 171.765625 80.710938 171.78125 80.707031 171.785156 80.699219 C 171.792969 80.691406 171.792969 80.6875 171.800781 80.6875 C 171.828125 80.65625 171.847656 80.625 171.859375 80.585938 C 172.132812 79.914062 172.507812 79.304688 172.984375 78.761719 C 173.386719 78.273438 173.875 77.902344 174.449219 77.640625 C 174.796875 77.480469 175.144531 77.472656 175.5 77.617188 C 176.910156 78.28125 176.902344 81.125 176.359375 82.835938 C 175.878906 84.121094 175.234375 85.3125 174.429688 86.421875 C 174.375 86.488281 174.355469 86.566406 174.363281 86.652344 C 175.007812 92.429688 176.066406 97.105469 177.601562 100.960938 L 177.609375 100.960938 C 177.632812 101.015625 177.667969 101.058594 177.714844 101.09375 C 177.730469 101.109375 177.742188 101.113281 177.75 101.121094 C 177.761719 101.128906 177.773438 101.140625 177.789062 101.148438 L 182.945312 103.207031 C 182.261719 104.902344 178.359375 113.375 168.984375 114.476562 C 164.015625 115.0625 160.355469 114.230469 158.121094 112.011719 C 155.660156 109.566406 155.730469 106.144531 155.773438 105.445312 L 159.304688 104.265625 C 159.324219 104.257812 159.339844 104.246094 159.359375 104.230469 C 159.378906 104.226562 159.394531 104.21875 159.410156 104.203125 C 159.4375 104.179688 159.460938 104.148438 159.476562 104.117188 L 159.484375 104.113281 C 159.519531 104.042969 159.53125 103.96875 159.519531 103.890625 L 159.519531 103.859375 C 159.332031 102.878906 159.136719 101.90625 158.953125 100.925781 C 158.945312 100.886719 158.933594 100.839844 158.925781 100.792969 C 159.511719 100.882812 160.101562 100.925781 160.695312 100.925781 C 164.101562 100.933594 167.886719 100.042969 170.488281 97.730469 C 170.808594 97.449219 170.335938 96.976562 170.015625 97.265625 C 167.722656 99.300781 164.453125 100.109375 161.453125 100.242188 C 158.871094 100.363281 156.175781 99.820312 154.214844 98.035156 C 152.636719 96.605469 151.804688 94.578125 151.113281 92.609375 C 150.28125 90.148438 149.609375 87.648438 149.097656 85.101562 Z M 149.890625 90.984375 C 150.042969 91.488281 150.195312 91.988281 150.367188 92.480469 C 151.0625 94.519531 151.886719 96.644531 153.421875 98.203125 C 154.773438 99.519531 156.371094 100.34375 158.226562 100.675781 L 158.226562 100.679688 C 158.417969 101.660156 158.605469 102.632812 158.792969 103.613281 C 158.796875 103.648438 158.808594 103.6875 158.820312 103.726562 L 150.792969 106.402344 L 147.015625 91.183594 Z M 211.84375 163.769531 L 209.09375 171.429688 L 192.574219 171.429688 L 196.464844 155.511719 C 196.476562 155.46875 196.476562 155.421875 196.464844 155.378906 L 195.273438 148.199219 L 195.160156 147.539062 L 191.609375 126.183594 C 191.59375 126.09375 191.546875 126.023438 191.472656 125.96875 C 191.398438 125.914062 191.316406 125.898438 191.226562 125.910156 C 191.136719 125.925781 191.0625 125.96875 191.011719 126.042969 C 190.957031 126.117188 190.9375 126.199219 190.949219 126.292969 L 195.800781 155.417969 L 191.886719 171.429688 L 154.507812 171.429688 C 154.242188 169.519531 152.699219 158.320312 151.945312 151.566406 C 149.722656 131.667969 149.695312 118.550781 149.695312 118.417969 C 149.695312 118.328125 149.664062 118.25 149.597656 118.183594 C 149.535156 118.117188 149.457031 118.085938 149.363281 118.085938 C 149.273438 118.085938 149.195312 118.121094 149.128906 118.183594 C 149.066406 118.25 149.03125 118.328125 149.03125 118.417969 C 149.03125 118.492188 149.042969 122.675781 149.445312 129.855469 L 139.230469 131.019531 C 138.90625 120.875 138.21875 112.871094 138.085938 111.359375 L 155.09375 105.671875 C 155.058594 106.828125 155.207031 110.046875 157.648438 112.476562 C 159.550781 114.367188 162.378906 115.320312 166.078125 115.320312 C 167.078125 115.320312 168.074219 115.257812 169.066406 115.132812 C 178.78125 113.996094 182.832031 105.25 183.5625 103.453125 L 194.171875 107.6875 C 194.492188 108.132812 194.746094 108.613281 194.933594 109.125 C 195.152344 109.90625 195.246094 110.699219 195.214844 111.503906 C 195.234375 112.871094 195.261719 114.277344 196.546875 114.457031 C 196.855469 114.5 197.132812 114.421875 197.378906 114.222656 C 198.042969 113.6875 198.316406 112.398438 198.367188 111.792969 C 198.46875 110.605469 198.515625 110.046875 198.582031 109.332031 L 198.628906 108.792969 C 200.007812 111.332031 200.628906 114.042969 200.484375 116.925781 C 200.472656 117.125 200.464844 117.332031 200.453125 117.546875 C 200.382812 118.738281 200.316406 119.96875 200.652344 121.035156 C 200.71875 121.253906 200.84375 121.429688 201.023438 121.566406 C 201.203125 121.703125 201.410156 121.777344 201.636719 121.78125 C 201.910156 121.796875 202.164062 121.734375 202.398438 121.589844 C 202.632812 121.449219 202.804688 121.253906 202.917969 121.003906 C 203.265625 120.164062 203.476562 119.296875 203.550781 118.390625 L 203.550781 118.53125 C 203.546875 119.609375 203.53125 120.734375 203.589844 121.894531 C 203.585938 122.507812 203.820312 123.007812 204.289062 123.402344 C 204.554688 123.566406 204.828125 123.582031 205.109375 123.445312 C 205.558594 123.1875 205.8125 122.796875 205.867188 122.28125 C 206.046875 121.476562 206.199219 120.5625 206.3125 119.609375 C 206.320312 120.023438 206.320312 120.363281 206.320312 120.597656 C 206.3125 121.914062 206.347656 123.1875 206.738281 124.226562 C 206.816406 124.445312 206.953125 124.621094 207.144531 124.75 C 207.339844 124.882812 207.550781 124.945312 207.785156 124.9375 C 207.832031 124.941406 207.882812 124.9375 207.929688 124.933594 C 208.230469 124.902344 208.492188 124.78125 208.707031 124.570312 C 208.925781 124.359375 209.058594 124.105469 209.101562 123.808594 C 209.199219 123.082031 209.273438 122.335938 209.320312 121.570312 C 209.328125 121.574219 209.328125 121.582031 209.332031 121.589844 C 209.488281 121.800781 209.699219 121.917969 209.960938 121.941406 L 211.824219 146.28125 L 211.875 146.945312 L 212.453125 154.558594 C 212.691406 157.660156 212.488281 160.730469 211.84375 163.769531 Z M 155.371094 89.832031 C 155.027344 86.804688 154.996094 83.773438 155.285156 80.738281 C 155.320312 80.320312 155.984375 80.3125 155.953125 80.738281 C 155.703125 83.4375 155.699219 86.136719 155.9375 88.839844 C 155.980469 89.480469 156.0625 90.117188 156.175781 90.75 C 156.234375 91.058594 156.316406 91.363281 156.417969 91.664062 C 156.484375 91.871094 156.578125 92.300781 156.796875 92.394531 C 157.109375 92.460938 157.421875 92.464844 157.734375 92.414062 C 158.0625 92.402344 158.386719 92.371094 158.710938 92.320312 C 159.375 92.222656 160.019531 92.058594 160.648438 91.828125 C 161.054688 91.683594 161.226562 92.328125 160.828125 92.476562 C 160.132812 92.722656 159.421875 92.894531 158.691406 92.996094 C 158.027344 93.125 157.355469 93.144531 156.683594 93.046875 C 156.097656 92.914062 155.917969 92.28125 155.75 91.777344 C 155.5625 91.140625 155.4375 90.492188 155.371094 89.832031 Z M 67.675781 91.960938 C 68.746094 92.117188 69.925781 91.722656 70.4375 90.71875 C 70.976562 89.644531 70.359375 88.796875 69.777344 87.925781 C 68.554688 86.074219 68.941406 83.863281 69.394531 81.824219 C 69.488281 81.40625 70.125 81.585938 70.03125 82.003906 C 69.757812 83.222656 69.488281 84.503906 69.652344 85.761719 C 69.734375 86.378906 69.945312 86.949219 70.277344 87.472656 C 70.613281 87.925781 70.902344 88.40625 71.144531 88.910156 C 71.328125 89.40625 71.359375 89.910156 71.242188 90.425781 C 71.125 90.941406 70.878906 91.382812 70.496094 91.75 C 70.09375 92.121094 69.625 92.382812 69.097656 92.53125 C 68.570312 92.683594 68.035156 92.710938 67.496094 92.609375 C 67.078125 92.546875 67.257812 91.902344 67.675781 91.960938 Z M 123.773438 83.15625 C 123.949219 83.753906 123.910156 84.339844 123.652344 84.910156 C 123.363281 85.382812 122.964844 85.738281 122.464844 85.972656 C 120.421875 87.066406 117.851562 86.632812 116.074219 85.222656 C 115.742188 84.949219 116.214844 84.484375 116.546875 84.75 C 117.667969 85.632812 118.9375 86.019531 120.359375 85.90625 C 121.023438 85.855469 121.648438 85.667969 122.230469 85.339844 C 122.976562 84.914062 123.328125 84.34375 123.160156 83.46875 C 122.863281 81.9375 121.765625 80.679688 121.125 79.289062 C 120.46875 77.847656 120.101562 76.339844 120.019531 74.757812 C 120 74.332031 120.667969 74.332031 120.6875 74.757812 C 120.773438 76.457031 121.210938 78.0625 122.003906 79.566406 C 122.621094 80.738281 123.46875 81.839844 123.773438 83.15625 Z M 123.773438 83.15625 " fill-opacity="1" fill-rule="nonzero"/></g></svg>