<svg xmlns="http://www.w3.org/2000/svg" xmlns:xlink="http://www.w3.org/1999/xlink" width="297" zoomAndPan="magnify" viewBox="0 0 222.75 225" height="300" preserveAspectRatio="xMidYMid meet" version="1.0"><defs><clipPath id="2e07f4c4d3"><path d="M 83 99 L 163.46875 99 L 163.46875 163 L 83 163 Z M 83 99 " clip-rule="nonzero"/></clipPath><clipPath id="07cede04a6"><path d="M 95 38.472656 L 148 38.472656 L 148 91 L 95 91 Z M 95 38.472656 " clip-rule="nonzero"/></clipPath><clipPath id="1cf1232cc6"><path d="M 59.335938 123 L 123 123 L 123 186.804688 L 59.335938 186.804688 Z M 59.335938 123 " clip-rule="nonzero"/></clipPath></defs><g clip-path="url(#2e07f4c4d3)"><path fill="#010600" d="M 132.90625 99.117188 L 110.484375 99.117188 C 98.386719 99.117188 87.945312 106.222656 83.109375 116.484375 C 85.667969 115.960938 88.292969 115.703125 90.945312 115.703125 C 96.234375 115.703125 101.367188 116.742188 106.214844 118.792969 C 110.878906 120.765625 115.074219 123.597656 118.675781 127.191406 C 122.277344 130.792969 125.101562 134.976562 127.074219 139.644531 C 129.117188 144.480469 130.164062 149.621094 130.164062 154.914062 C 130.164062 157.605469 129.898438 160.261719 129.355469 162.855469 L 154.816406 162.855469 C 159.414062 162.855469 163.15625 159.125 163.15625 154.519531 L 163.15625 129.363281 C 163.15625 112.65625 149.605469 99.117188 132.90625 99.117188 Z M 132.90625 99.117188 " fill-opacity="1" fill-rule="nonzero"/></g><g clip-path="url(#07cede04a6)"><path fill="#010600" d="M 147.777344 64.566406 C 147.777344 65.421875 147.738281 66.273438 147.652344 67.121094 C 147.570312 67.972656 147.445312 68.816406 147.277344 69.65625 C 147.113281 70.492188 146.902344 71.320312 146.65625 72.136719 C 146.40625 72.953125 146.121094 73.757812 145.792969 74.546875 C 145.46875 75.335938 145.101562 76.109375 144.699219 76.859375 C 144.296875 77.613281 143.859375 78.347656 143.382812 79.054688 C 142.910156 79.765625 142.402344 80.453125 141.859375 81.113281 C 141.316406 81.773438 140.742188 82.40625 140.140625 83.007812 C 139.535156 83.613281 138.902344 84.1875 138.242188 84.726562 C 137.582031 85.269531 136.898438 85.777344 136.1875 86.253906 C 135.476562 86.726562 134.746094 87.164062 133.992188 87.570312 C 133.238281 87.972656 132.46875 88.335938 131.679688 88.664062 C 130.890625 88.988281 130.085938 89.277344 129.269531 89.523438 C 128.449219 89.773438 127.621094 89.980469 126.785156 90.148438 C 125.949219 90.3125 125.101562 90.4375 124.253906 90.523438 C 123.402344 90.605469 122.550781 90.648438 121.695312 90.648438 C 120.84375 90.648438 119.992188 90.605469 119.140625 90.523438 C 118.289062 90.4375 117.445312 90.3125 116.609375 90.148438 C 115.769531 89.980469 114.941406 89.773438 114.125 89.523438 C 113.308594 89.277344 112.503906 88.988281 111.714844 88.664062 C 110.925781 88.335938 110.15625 87.972656 109.402344 87.570312 C 108.648438 87.164062 107.917969 86.726562 107.207031 86.253906 C 106.496094 85.777344 105.808594 85.269531 105.148438 84.726562 C 104.488281 84.1875 103.859375 83.613281 103.253906 83.007812 C 102.648438 82.40625 102.078125 81.773438 101.535156 81.113281 C 100.992188 80.453125 100.484375 79.765625 100.011719 79.054688 C 99.535156 78.347656 99.097656 77.613281 98.695312 76.859375 C 98.292969 76.109375 97.925781 75.335938 97.597656 74.546875 C 97.273438 73.757812 96.984375 72.953125 96.738281 72.136719 C 96.488281 71.320312 96.28125 70.492188 96.117188 69.65625 C 95.949219 68.816406 95.824219 67.972656 95.738281 67.121094 C 95.65625 66.273438 95.613281 65.421875 95.613281 64.566406 C 95.613281 63.710938 95.65625 62.859375 95.738281 62.007812 C 95.824219 61.160156 95.949219 60.316406 96.117188 59.476562 C 96.28125 58.640625 96.488281 57.8125 96.738281 56.996094 C 96.984375 56.175781 97.273438 55.375 97.597656 54.585938 C 97.925781 53.796875 98.292969 53.023438 98.695312 52.269531 C 99.097656 51.515625 99.535156 50.785156 100.011719 50.074219 C 100.484375 49.363281 100.992188 48.679688 101.535156 48.019531 C 102.078125 47.359375 102.648438 46.726562 103.253906 46.121094 C 103.859375 45.519531 104.488281 44.945312 105.148438 44.402344 C 105.808594 43.863281 106.496094 43.355469 107.207031 42.878906 C 107.917969 42.40625 108.648438 41.964844 109.402344 41.5625 C 110.15625 41.160156 110.925781 40.796875 111.714844 40.46875 C 112.503906 40.140625 113.308594 39.855469 114.125 39.605469 C 114.941406 39.359375 115.769531 39.152344 116.609375 38.984375 C 117.445312 38.816406 118.289062 38.691406 119.140625 38.609375 C 119.992188 38.523438 120.84375 38.484375 121.695312 38.484375 C 122.550781 38.484375 123.402344 38.523438 124.253906 38.609375 C 125.101562 38.691406 125.949219 38.816406 126.785156 38.984375 C 127.621094 39.152344 128.449219 39.359375 129.269531 39.605469 C 130.085938 39.855469 130.890625 40.140625 131.679688 40.46875 C 132.46875 40.796875 133.238281 41.160156 133.992188 41.5625 C 134.746094 41.964844 135.476562 42.40625 136.1875 42.878906 C 136.898438 43.355469 137.582031 43.863281 138.242188 44.402344 C 138.902344 44.945312 139.535156 45.519531 140.140625 46.121094 C 140.742188 46.726562 141.316406 47.359375 141.859375 48.019531 C 142.402344 48.679688 142.910156 49.363281 143.382812 50.074219 C 143.859375 50.785156 144.296875 51.515625 144.699219 52.269531 C 145.101562 53.023438 145.46875 53.796875 145.792969 54.585938 C 146.121094 55.375 146.40625 56.175781 146.65625 56.996094 C 146.902344 57.8125 147.113281 58.640625 147.277344 59.476562 C 147.445312 60.316406 147.570312 61.160156 147.652344 62.007812 C 147.738281 62.859375 147.777344 63.710938 147.777344 64.566406 Z M 147.777344 64.566406 " fill-opacity="1" fill-rule="nonzero"/></g><path fill="#010600" d="M 97.609375 170.789062 C 97.585938 170.789062 97.566406 170.800781 97.546875 170.8125 C 96.582031 171.136719 95.59375 171.214844 94.585938 171.105469 C 93.414062 170.976562 92.832031 170.464844 92.703125 169.269531 C 92.585938 168.226562 92.753906 167.199219 93.019531 166.203125 C 93.671875 163.753906 94.339844 161.308594 95.042969 158.871094 C 95.554688 157.09375 95.898438 155.308594 95.820312 153.441406 C 95.761719 151.972656 95.140625 150.796875 93.996094 149.929688 C 92.277344 148.625 90.296875 148.496094 88.273438 148.773438 C 86.671875 148.992188 85.171875 149.5625 83.671875 150.125 C 83.652344 150.136719 83.644531 150.136719 83.625 150.144531 C 82.390625 150.609375 82.863281 152.445312 84.175781 152.269531 C 84.492188 152.226562 84.816406 152.207031 85.152344 152.21875 C 87 152.308594 87.621094 152.917969 87.582031 154.746094 C 87.5625 155.789062 87.335938 156.796875 87.085938 157.804688 C 86.257812 161.207031 85.054688 164.503906 84.441406 167.96875 C 83.851562 171.273438 85.558594 173.878906 88.816406 174.519531 C 91.460938 175.035156 93.878906 174.34375 96.316406 173.386719 C 97.566406 172.851562 98.082031 172.152344 98.296875 171.628906 C 98.445312 171.1875 98.070312 170.703125 97.609375 170.789062 Z M 97.609375 170.789062 " fill-opacity="1" fill-rule="nonzero"/><path fill="#010600" d="M 94.203125 135.117188 C 91.546875 135.117188 89.398438 137.265625 89.398438 139.921875 C 89.398438 142.578125 91.546875 144.726562 94.203125 144.726562 C 96.859375 144.726562 99.007812 142.578125 99.007812 139.921875 C 99.019531 137.265625 96.867188 135.117188 94.203125 135.117188 Z M 94.203125 135.117188 " fill-opacity="1" fill-rule="nonzero"/><g clip-path="url(#1cf1232cc6)"><path fill="#010600" d="M 113.296875 132.550781 C 110.398438 129.648438 107.011719 127.371094 103.253906 125.78125 C 99.355469 124.132812 95.210938 123.292969 90.945312 123.292969 C 86.683594 123.292969 82.539062 124.132812 78.640625 125.78125 C 74.878906 127.371094 71.496094 129.648438 68.59375 132.550781 C 65.691406 135.453125 63.414062 138.835938 61.824219 142.597656 C 60.175781 146.496094 59.335938 150.640625 59.335938 154.902344 C 59.335938 159.164062 60.175781 163.3125 61.824219 167.207031 C 63.414062 170.96875 65.691406 174.351562 68.59375 177.253906 C 71.496094 180.15625 74.878906 182.4375 78.640625 184.023438 C 82.539062 185.671875 86.683594 186.511719 90.945312 186.511719 C 95.210938 186.511719 99.355469 185.671875 103.253906 184.023438 C 107.011719 182.4375 110.398438 180.15625 113.296875 177.253906 C 116.199219 174.351562 118.480469 170.96875 120.070312 167.207031 C 121.714844 163.3125 122.554688 159.164062 122.554688 154.902344 C 122.554688 150.640625 121.714844 146.496094 120.070312 142.597656 C 118.480469 138.835938 116.199219 135.453125 113.296875 132.550781 Z M 90.945312 180.046875 C 77.082031 180.046875 65.800781 168.769531 65.800781 154.902344 C 65.800781 141.039062 77.082031 129.757812 90.945312 129.757812 C 104.8125 129.757812 116.089844 141.039062 116.089844 154.902344 C 116.101562 168.769531 104.820312 180.046875 90.945312 180.046875 Z M 90.945312 180.046875 " fill-opacity="1" fill-rule="nonzero"/></g></svg>