<svg xmlns="http://www.w3.org/2000/svg" xmlns:xlink="http://www.w3.org/1999/xlink" width="297" zoomAndPan="magnify" viewBox="0 0 222.75 225" height="300" preserveAspectRatio="xMidYMid meet" version="1.0"><defs><clipPath id="13738f9ee2"><path d="M 93 175 L 130 175 L 130 189.371094 L 93 189.371094 Z M 93 175 " clip-rule="nonzero"/></clipPath><clipPath id="f9be4add1e"><path d="M 41.515625 35.792969 L 180.859375 35.792969 L 180.859375 169 L 41.515625 169 Z M 41.515625 35.792969 " clip-rule="nonzero"/></clipPath></defs><g clip-path="url(#13738f9ee2)"><path fill="#010600" d="M 128.777344 175.847656 C 128.433594 175.351562 127.75 175.007812 127.316406 175.070312 L 95.269531 175.257812 C 95.269531 175.257812 94.121094 175.566406 93.808594 176.066406 C 93.5 176.5625 93.4375 177.183594 93.683594 177.710938 C 96.730469 184.699219 103.652344 189.199219 111.261719 189.199219 C 118.992188 189.199219 125.917969 184.605469 128.929688 177.492188 C 129.148438 176.933594 129.085938 176.3125 128.777344 175.847656 Z M 128.777344 175.847656 " fill-opacity="1" fill-rule="nonzero"/></g><g clip-path="url(#f9be4add1e)"><path fill="#010600" d="M 179.734375 158.644531 L 160.078125 142.246094 L 160.078125 98.554688 C 160.078125 76.414062 145.234375 57.691406 124.988281 51.726562 C 125.082031 51.074219 125.203125 50.421875 125.203125 49.738281 C 125.203125 42.039062 118.960938 35.796875 111.261719 35.796875 C 103.558594 35.796875 97.320312 42.039062 97.320312 49.738281 C 97.320312 50.421875 97.441406 51.074219 97.535156 51.726562 C 77.289062 57.691406 62.445312 76.382812 62.445312 98.554688 L 62.445312 142.246094 L 42.757812 158.644531 C 41.949219 159.296875 41.515625 160.289062 41.515625 161.316406 L 41.515625 164.792969 C 41.515625 166.71875 43.066406 168.269531 44.992188 168.269531 L 177.5 168.269531 C 179.421875 168.269531 180.976562 166.71875 180.976562 164.792969 L 180.976562 161.316406 C 180.976562 160.289062 180.511719 159.296875 179.734375 158.644531 Z M 104.335938 50.300781 C 104.335938 50.113281 104.273438 49.925781 104.273438 49.738281 C 104.273438 45.890625 107.410156 42.753906 111.261719 42.753906 C 115.113281 42.753906 118.21875 45.890625 118.21875 49.738281 C 118.21875 49.925781 118.1875 50.113281 118.15625 50.300781 C 115.886719 49.988281 113.589844 49.738281 111.230469 49.738281 C 108.871094 49.738281 106.601562 49.957031 104.335938 50.300781 Z M 104.335938 50.300781 " fill-opacity="1" fill-rule="nonzero"/></g></svg>