<svg xmlns="http://www.w3.org/2000/svg" xmlns:xlink="http://www.w3.org/1999/xlink" width="297" zoomAndPan="magnify" viewBox="0 0 222.75 225" height="300" preserveAspectRatio="xMidYMid meet" version="1.0"><defs><clipPath id="ce6eb839b3"><path d="M 32.539062 38.019531 L 189.863281 38.019531 L 189.863281 117 L 32.539062 117 Z M 32.539062 38.019531 " clip-rule="nonzero"/></clipPath></defs><path fill="#010600" d="M 166.511719 113.738281 Z M 166.511719 113.738281 L 111.265625 64.808594 L 55.984375 113.757812 L 55.984375 183.699219 C 55.984375 185.507812 57.445312 186.957031 59.25 186.957031 L 93.800781 186.957031 L 93.800781 156.289062 C 93.800781 154.480469 95.25 153.023438 97.054688 153.023438 L 125.441406 153.023438 C 127.25 153.023438 128.699219 154.480469 128.699219 156.289062 L 128.699219 186.957031 L 163.253906 186.957031 C 165.0625 186.957031 166.511719 185.507812 166.511719 183.699219 L 166.511719 113.734375 Z M 55.984375 113.757812 Z M 55.984375 113.757812 " fill-opacity="1" fill-rule="nonzero"/><g clip-path="url(#ce6eb839b3)"><path fill="#010600" d="M 110.945312 38.03125 L 32.539062 107.453125 L 40.800781 116.769531 L 111.265625 54.371094 L 181.714844 116.769531 L 189.957031 107.453125 L 111.570312 38.03125 L 111.265625 38.382812 Z M 110.945312 38.03125 " fill-opacity="1" fill-rule="nonzero"/></g><path fill="#010600" d="M 55.984375 48.023438 L 75.859375 48.023438 L 75.6875 59.796875 L 55.984375 77.59375 Z M 55.984375 48.023438 " fill-opacity="1" fill-rule="nonzero"/></svg>