<svg xmlns="http://www.w3.org/2000/svg" xmlns:xlink="http://www.w3.org/1999/xlink" width="297" zoomAndPan="magnify" viewBox="0 0 222.75 225" height="300" preserveAspectRatio="xMidYMid meet" version="1.0"><defs><clipPath id="8ade066096"><path d="M 41.808594 39.789062 L 180.40625 39.789062 L 180.40625 185.125 L 41.808594 185.125 Z M 41.808594 39.789062 " clip-rule="nonzero"/></clipPath></defs><g clip-path="url(#8ade066096)"><path fill="#010600" d="M 155.601562 54.335938 L 148.847656 54.335938 L 148.847656 44.253906 C 148.847656 41.828125 146.875 39.875 144.46875 39.875 C 142.042969 39.875 140.089844 41.847656 140.089844 44.253906 L 140.089844 54.355469 L 79.890625 54.355469 L 79.890625 44.253906 C 79.890625 41.828125 77.917969 39.875 75.511719 39.875 C 73.085938 39.875 71.132812 41.847656 71.132812 44.253906 L 71.132812 54.355469 L 66.878906 54.355469 C 53.03125 54.355469 41.808594 65.574219 41.808594 79.421875 L 41.808594 160.054688 C 41.808594 173.898438 53.03125 185.121094 66.878906 185.121094 L 155.601562 185.121094 C 169.445312 185.121094 180.667969 173.898438 180.667969 160.054688 L 180.667969 79.421875 C 180.6875 65.574219 169.445312 54.335938 155.601562 54.335938 Z M 140.070312 58.96875 L 140.070312 68.074219 C 140.070312 70.5 142.042969 72.453125 144.449219 72.453125 C 146.875 72.453125 148.832031 70.480469 148.832031 68.074219 L 148.832031 59.3125 C 151.636719 60.941406 153.535156 63.984375 153.535156 67.457031 C 153.535156 72.652344 149.320312 76.871094 144.125 76.871094 C 138.929688 76.871094 134.714844 72.652344 134.714844 67.457031 C 134.75 63.710938 136.921875 60.488281 140.070312 58.96875 Z M 71.113281 59.132812 L 71.113281 68.074219 C 71.113281 70.5 73.085938 72.453125 75.492188 72.453125 C 77.917969 72.453125 79.871094 70.480469 79.871094 68.074219 L 79.871094 59.132812 C 82.859375 60.707031 84.886719 63.835938 84.886719 67.441406 C 84.886719 72.632812 80.667969 76.851562 75.476562 76.851562 C 70.28125 76.851562 66.0625 72.632812 66.0625 67.441406 C 66.097656 63.835938 68.144531 60.707031 71.113281 59.132812 Z M 171.90625 160.035156 C 171.90625 169.03125 164.59375 176.324219 155.617188 176.324219 L 66.878906 176.324219 C 57.882812 176.324219 50.589844 169.011719 50.589844 160.035156 L 50.589844 93.25 L 171.90625 93.25 Z M 171.90625 160.035156 " fill-opacity="1" fill-rule="nonzero"/></g><path fill="#010600" d="M 80.019531 118.535156 L 67.875 118.535156 C 66.894531 118.535156 66.097656 117.738281 66.097656 116.761719 L 66.097656 104.617188 C 66.097656 103.636719 66.894531 102.839844 67.875 102.839844 L 80.019531 102.839844 C 80.996094 102.839844 81.792969 103.636719 81.792969 104.617188 L 81.792969 116.761719 C 81.773438 117.738281 80.996094 118.535156 80.019531 118.535156 Z M 80.019531 118.535156 " fill-opacity="1" fill-rule="nonzero"/><path fill="#010600" d="M 80.019531 143.4375 L 67.875 143.4375 C 66.894531 143.4375 66.097656 142.640625 66.097656 141.664062 L 66.097656 129.519531 C 66.097656 128.542969 66.894531 127.746094 67.875 127.746094 L 80.019531 127.746094 C 80.996094 127.746094 81.792969 128.542969 81.792969 129.519531 L 81.792969 141.664062 C 81.773438 142.660156 80.996094 143.4375 80.019531 143.4375 Z M 80.019531 143.4375 " fill-opacity="1" fill-rule="nonzero"/><path fill="#010600" d="M 80.019531 168.359375 L 67.875 168.359375 C 66.894531 168.359375 66.097656 167.566406 66.097656 166.585938 L 66.097656 154.441406 C 66.097656 153.464844 66.894531 152.667969 67.875 152.667969 L 80.019531 152.667969 C 80.996094 152.667969 81.792969 153.464844 81.792969 154.441406 L 81.792969 166.605469 C 81.773438 167.566406 80.996094 168.359375 80.019531 168.359375 Z M 80.019531 168.359375 " fill-opacity="1" fill-rule="nonzero"/><path fill="#010600" d="M 104.921875 118.535156 L 92.777344 118.535156 C 91.800781 118.535156 91.003906 117.738281 91.003906 116.761719 L 91.003906 104.617188 C 91.003906 103.636719 91.800781 102.839844 92.777344 102.839844 L 104.921875 102.839844 C 105.898438 102.839844 106.695312 103.636719 106.695312 104.617188 L 106.695312 116.761719 C 106.695312 117.738281 105.898438 118.535156 104.921875 118.535156 Z M 104.921875 118.535156 " fill-opacity="1" fill-rule="nonzero"/><path fill="#010600" d="M 104.921875 143.4375 L 92.777344 143.4375 C 91.800781 143.4375 91.003906 142.640625 91.003906 141.664062 L 91.003906 129.519531 C 91.003906 128.542969 91.800781 127.746094 92.777344 127.746094 L 104.921875 127.746094 C 105.898438 127.746094 106.695312 128.542969 106.695312 129.519531 L 106.695312 141.664062 C 106.695312 142.660156 105.898438 143.4375 104.921875 143.4375 Z M 104.921875 143.4375 " fill-opacity="1" fill-rule="nonzero"/><path fill="#010600" d="M 104.921875 168.359375 L 92.777344 168.359375 C 91.800781 168.359375 91.003906 167.566406 91.003906 166.585938 L 91.003906 154.441406 C 91.003906 153.464844 91.800781 152.667969 92.777344 152.667969 L 104.921875 152.667969 C 105.898438 152.667969 106.695312 153.464844 106.695312 154.441406 L 106.695312 166.605469 C 106.695312 167.566406 105.898438 168.359375 104.921875 168.359375 Z M 104.921875 168.359375 " fill-opacity="1" fill-rule="nonzero"/><path fill="#010600" d="M 129.84375 118.535156 L 117.699219 118.535156 C 116.722656 118.535156 115.925781 117.738281 115.925781 116.761719 L 115.925781 104.617188 C 115.925781 103.636719 116.722656 102.839844 117.699219 102.839844 L 129.84375 102.839844 C 130.824219 102.839844 131.617188 103.636719 131.617188 104.617188 L 131.617188 116.761719 C 131.601562 117.738281 130.824219 118.535156 129.84375 118.535156 Z M 129.84375 118.535156 " fill-opacity="1" fill-rule="nonzero"/><path fill="#010600" d="M 129.84375 143.4375 L 117.699219 143.4375 C 116.722656 143.4375 115.925781 142.640625 115.925781 141.664062 L 115.925781 129.519531 C 115.925781 128.542969 116.722656 127.746094 117.699219 127.746094 L 129.84375 127.746094 C 130.824219 127.746094 131.617188 128.542969 131.617188 129.519531 L 131.617188 141.664062 C 131.601562 142.660156 130.824219 143.4375 129.84375 143.4375 Z M 129.84375 143.4375 " fill-opacity="1" fill-rule="nonzero"/><path fill="#010600" d="M 129.84375 168.359375 L 117.699219 168.359375 C 116.722656 168.359375 115.925781 167.566406 115.925781 166.585938 L 115.925781 154.441406 C 115.925781 153.464844 116.722656 152.667969 117.699219 152.667969 L 129.84375 152.667969 C 130.824219 152.667969 131.617188 153.464844 131.617188 154.441406 L 131.617188 166.605469 C 131.601562 167.566406 130.824219 168.359375 129.84375 168.359375 Z M 129.84375 168.359375 " fill-opacity="1" fill-rule="nonzero"/><path fill="#010600" d="M 154.769531 118.535156 L 142.625 118.535156 C 141.644531 118.535156 140.847656 117.738281 140.847656 116.761719 L 140.847656 104.617188 C 140.847656 103.636719 141.644531 102.839844 142.625 102.839844 L 154.769531 102.839844 C 155.746094 102.839844 156.542969 103.636719 156.542969 104.617188 L 156.542969 116.761719 C 156.523438 117.738281 155.726562 118.535156 154.769531 118.535156 Z M 154.769531 118.535156 " fill-opacity="1" fill-rule="nonzero"/><path fill="#010600" d="M 154.769531 143.4375 L 142.625 143.4375 C 141.644531 143.4375 140.847656 142.640625 140.847656 141.664062 L 140.847656 129.519531 C 140.847656 128.542969 141.644531 127.746094 142.625 127.746094 L 154.769531 127.746094 C 155.746094 127.746094 156.542969 128.542969 156.542969 129.519531 L 156.542969 141.664062 C 156.523438 142.660156 155.726562 143.4375 154.769531 143.4375 Z M 154.769531 143.4375 " fill-opacity="1" fill-rule="nonzero"/></svg>