<svg xmlns="http://www.w3.org/2000/svg" xmlns:xlink="http://www.w3.org/1999/xlink" width="297" zoomAndPan="magnify" viewBox="0 0 222.75 225" height="300" preserveAspectRatio="xMidYMid meet" version="1.0"><defs><clipPath id="a36286e2f1"><path d="M 42.90625 44.15625 L 129 44.15625 L 129 180.503906 L 42.90625 180.503906 Z M 42.90625 44.15625 " clip-rule="nonzero"/></clipPath><clipPath id="1a1b9a13b2"><path d="M 118 80 L 179.253906 80 L 179.253906 127 L 118 127 Z M 118 80 " clip-rule="nonzero"/></clipPath></defs><g clip-path="url(#a36286e2f1)"><path fill="#e9b033" d="M 119.648438 72.332031 L 119.648438 52.558594 L 73.09375 52.558594 L 102.097656 62.382812 C 103.847656 62.980469 105 64.601562 105 66.4375 L 105 153.996094 L 119.648438 153.996094 L 119.648438 134.222656 C 119.648438 131.828125 121.527344 129.949219 123.921875 129.949219 C 126.269531 129.949219 128.191406 131.828125 128.191406 134.222656 L 128.191406 158.269531 C 128.191406 160.617188 126.269531 162.539062 123.921875 162.539062 L 105 162.539062 L 105 176.417969 C 105 177.785156 104.359375 179.109375 103.25 179.878906 C 102.480469 180.433594 101.625 180.691406 100.730469 180.691406 C 100.300781 180.691406 99.832031 180.605469 99.363281 180.476562 L 45.804688 162.324219 C 45.761719 162.28125 45.71875 162.238281 45.632812 162.238281 C 45.503906 162.152344 45.375 162.070312 45.246094 162.027344 C 44.90625 161.855469 44.648438 161.640625 44.351562 161.429688 C 44.222656 161.300781 44.136719 161.171875 44.007812 161.042969 C 43.796875 160.789062 43.582031 160.53125 43.453125 160.191406 C 43.367188 160.0625 43.28125 159.933594 43.199219 159.761719 C 43.027344 159.292969 42.898438 158.78125 42.898438 158.269531 L 42.898438 48.289062 C 42.898438 47.773438 43.027344 47.261719 43.199219 46.792969 C 43.242188 46.707031 43.28125 46.621094 43.324219 46.535156 C 43.496094 46.109375 43.753906 45.722656 44.09375 45.339844 C 44.179688 45.296875 44.222656 45.210938 44.308594 45.167969 C 44.4375 45.042969 44.5625 44.914062 44.691406 44.828125 C 44.777344 44.742188 44.949219 44.742188 45.035156 44.699219 C 45.375 44.484375 45.761719 44.316406 46.1875 44.230469 C 46.402344 44.144531 46.613281 44.101562 46.828125 44.101562 C 46.957031 44.058594 47.042969 44.015625 47.167969 44.015625 L 123.921875 44.015625 C 126.269531 44.015625 128.191406 45.9375 128.191406 48.289062 L 128.191406 72.332031 C 128.191406 74.726562 126.269531 76.605469 123.921875 76.605469 C 121.527344 76.605469 119.648438 74.726562 119.648438 72.332031 Z M 119.648438 72.332031 " fill-opacity="1" fill-rule="nonzero"/></g><g clip-path="url(#1a1b9a13b2)"><path fill="#e9b033" d="M 179.230469 104.972656 C 179.234375 104.960938 179.25 104.957031 179.253906 104.941406 C 179.472656 104.429688 179.59375 103.867188 179.59375 103.273438 C 179.59375 102.679688 179.472656 102.117188 179.253906 101.601562 C 179.25 101.589844 179.234375 101.585938 179.230469 101.574219 C 179.007812 101.066406 178.699219 100.613281 178.308594 100.226562 C 178.300781 100.21875 178.296875 100.207031 178.289062 100.199219 L 158.835938 81.433594 C 157.140625 79.804688 154.441406 79.847656 152.796875 81.542969 C 151.15625 83.238281 151.210938 85.945312 152.90625 87.582031 L 164.738281 98.996094 L 123.207031 98.996094 C 120.847656 98.996094 118.9375 100.910156 118.9375 103.269531 C 118.9375 105.625 120.847656 107.539062 123.207031 107.539062 L 164.738281 107.539062 L 152.90625 118.957031 C 151.210938 120.59375 151.15625 123.300781 152.796875 124.996094 C 153.636719 125.867188 154.753906 126.304688 155.875 126.304688 C 156.941406 126.304688 158.007812 125.90625 158.835938 125.105469 L 178.289062 106.34375 C 178.296875 106.335938 178.300781 106.324219 178.308594 106.3125 C 178.695312 105.933594 179.007812 105.480469 179.230469 104.972656 Z M 179.230469 104.972656 " fill-opacity="1" fill-rule="nonzero"/></g></svg>