<svg xmlns="http://www.w3.org/2000/svg" xmlns:xlink="http://www.w3.org/1999/xlink" width="297" zoomAndPan="magnify" viewBox="0 0 222.75 225" height="300" preserveAspectRatio="xMidYMid meet" version="1.0"><defs><clipPath id="65de1ce74a"><path d="M 32.324219 34 L 190 34 L 190 191 L 32.324219 191 Z M 32.324219 34 " clip-rule="nonzero"/></clipPath></defs><g clip-path="url(#65de1ce74a)"><path fill="#f2d638" d="M 148.796875 111.179688 C 148.796875 132.433594 134.0625 149.324219 112.808594 149.324219 C 91.554688 149.324219 73.703125 133.753906 73.703125 112.5 C 73.703125 91.246094 89.828125 75.671875 111.082031 75.671875 C 134.035156 75.671875 148.796875 89.925781 148.796875 111.179688 Z M 114.429688 35.546875 C 113.265625 33.75 108.40625 33.570312 107.085938 35.609375 C 105.730469 37.707031 106.957031 66.617188 110.757812 66.617188 C 114.917969 66.617188 115.429688 37.097656 114.429688 35.546875 Z M 75.527344 44.269531 C 73.621094 43.292969 69.324219 45.566406 69.199219 47.992188 C 69.074219 50.488281 84.589844 74.910156 87.882812 73.007812 C 91.484375 70.929688 77.171875 45.109375 75.527344 44.269531 Z M 46.195312 71.269531 C 44.058594 71.378906 41.472656 75.496094 42.578125 77.65625 C 43.71875 79.882812 69.367188 93.277344 71.269531 89.984375 C 73.347656 86.382812 48.042969 71.179688 46.195312 71.269531 Z M 34.296875 109.320312 C 32.5 110.484375 32.320312 115.339844 34.359375 116.660156 C 36.457031 118.019531 65.367188 116.792969 65.367188 112.988281 C 65.367188 108.832031 35.851562 108.316406 34.296875 109.320312 Z M 43.019531 148.222656 C 42.042969 150.128906 44.316406 154.425781 46.742188 154.550781 C 49.238281 154.675781 73.660156 139.160156 71.757812 135.863281 C 69.679688 132.265625 43.859375 146.578125 43.019531 148.222656 Z M 70.019531 177.550781 C 70.128906 179.691406 74.246094 182.277344 76.40625 181.167969 C 78.632812 180.03125 92.027344 154.378906 88.734375 152.480469 C 85.132812 150.402344 69.929688 175.707031 70.019531 177.550781 Z M 108.070312 189.449219 C 109.234375 191.25 114.09375 191.429688 115.410156 189.390625 C 116.769531 187.292969 115.542969 158.378906 111.738281 158.382812 C 107.582031 158.382812 107.066406 187.898438 108.070312 189.449219 Z M 146.972656 180.730469 C 148.878906 181.707031 153.175781 179.433594 153.300781 177.007812 C 153.425781 174.511719 137.910156 150.085938 134.613281 151.988281 C 131.015625 154.070312 145.328125 179.886719 146.972656 180.730469 Z M 176.300781 153.726562 C 178.441406 153.621094 181.027344 149.503906 179.917969 147.339844 C 178.78125 145.113281 153.128906 131.722656 151.230469 135.015625 C 149.152344 138.617188 174.457031 153.820312 176.300781 153.726562 Z M 188.199219 115.679688 C 190 114.515625 190.179688 109.65625 188.140625 108.335938 C 186.042969 106.980469 157.128906 108.207031 157.132812 112.007812 C 157.132812 116.167969 186.648438 116.679688 188.199219 115.679688 Z M 179.480469 76.777344 C 180.457031 74.871094 178.183594 70.570312 175.757812 70.449219 C 173.261719 70.324219 148.835938 85.839844 150.738281 89.132812 C 152.820312 92.734375 178.636719 78.421875 179.480469 76.777344 Z M 152.476562 47.445312 C 152.371094 45.308594 148.253906 42.722656 146.089844 43.828125 C 143.863281 44.96875 130.472656 70.617188 133.765625 72.519531 C 137.367188 74.597656 152.570312 49.292969 152.476562 47.445312 Z M 152.476562 47.445312 " fill-opacity="1" fill-rule="nonzero"/></g></svg>