<svg xmlns="http://www.w3.org/2000/svg" xmlns:xlink="http://www.w3.org/1999/xlink" width="297" zoomAndPan="magnify" viewBox="0 0 222.75 225" height="300" preserveAspectRatio="xMidYMid meet" version="1.0"><defs><clipPath id="7d1e7afc3f"><path d="M 44 62.9375 L 178 62.9375 L 178 118 L 44 118 Z M 44 62.9375 " clip-rule="nonzero"/></clipPath><clipPath id="8b345fc065"><path d="M 41.808594 79 L 180.40625 79 L 180.40625 161.828125 L 41.808594 161.828125 Z M 41.808594 79 " clip-rule="nonzero"/></clipPath></defs><g clip-path="url(#7d1e7afc3f)"><path fill="#f2d638" d="M 102.164062 114.125 C 102.808594 114.621094 103.492188 115.0625 104.210938 115.445312 C 104.929688 115.828125 105.675781 116.152344 106.445312 116.414062 C 107.21875 116.675781 108.003906 116.875 108.808594 117.007812 C 109.613281 117.140625 110.421875 117.207031 111.238281 117.207031 C 112.054688 117.207031 112.863281 117.140625 113.667969 117.007812 C 114.46875 116.875 115.257812 116.675781 116.03125 116.414062 C 116.800781 116.152344 117.546875 115.828125 118.265625 115.445312 C 118.984375 115.0625 119.667969 114.621094 120.3125 114.125 L 177.902344 69.25 C 177.21875 68.277344 176.429688 67.398438 175.535156 66.613281 C 174.640625 65.828125 173.664062 65.160156 172.605469 64.609375 C 171.550781 64.0625 170.445312 63.644531 169.285156 63.363281 C 168.128906 63.078125 166.957031 62.9375 165.765625 62.9375 L 56.730469 62.9375 C 55.46875 62.941406 54.226562 63.101562 53.007812 63.421875 C 51.789062 63.742188 50.625 64.207031 49.527344 64.824219 C 48.425781 65.441406 47.417969 66.183594 46.507812 67.054688 C 45.597656 67.929688 44.808594 68.902344 44.148438 69.976562 Z M 102.164062 114.125 " fill-opacity="1" fill-rule="nonzero"/></g><g clip-path="url(#8b345fc065)"><path fill="#f2d638" d="M 126.382812 121.980469 C 125.308594 122.808594 124.171875 123.539062 122.972656 124.179688 C 121.777344 124.820312 120.535156 125.359375 119.25 125.796875 C 117.964844 126.230469 116.652344 126.5625 115.3125 126.78125 C 113.972656 127.003906 112.625 127.113281 111.269531 127.113281 C 109.910156 127.113281 108.5625 127.003906 107.222656 126.78125 C 105.882812 126.5625 104.570312 126.230469 103.285156 125.796875 C 102 125.359375 100.757812 124.820312 99.5625 124.179688 C 98.363281 123.539062 97.226562 122.808594 96.152344 121.980469 L 41.863281 80.695312 L 41.863281 147.191406 C 41.863281 148.167969 41.957031 149.136719 42.148438 150.09375 C 42.339844 151.050781 42.621094 151.980469 42.992188 152.882812 C 43.367188 153.785156 43.824219 154.640625 44.367188 155.453125 C 44.910156 156.265625 45.527344 157.015625 46.214844 157.707031 C 46.90625 158.394531 47.65625 159.011719 48.46875 159.554688 C 49.28125 160.097656 50.136719 160.554688 51.039062 160.929688 C 51.941406 161.300781 52.871094 161.585938 53.828125 161.773438 C 54.789062 161.964844 55.753906 162.058594 56.730469 162.058594 L 165.765625 162.058594 C 166.742188 162.058594 167.707031 161.964844 168.667969 161.773438 C 169.625 161.585938 170.554688 161.300781 171.457031 160.929688 C 172.359375 160.554688 173.214844 160.097656 174.027344 159.554688 C 174.839844 159.011719 175.589844 158.394531 176.28125 157.707031 C 176.96875 157.015625 177.585938 156.265625 178.128906 155.453125 C 178.671875 154.640625 179.128906 153.785156 179.503906 152.882812 C 179.875 151.980469 180.15625 151.050781 180.347656 150.09375 C 180.539062 149.136719 180.632812 148.167969 180.632812 147.191406 L 180.632812 79.714844 Z M 126.382812 121.980469 " fill-opacity="1" fill-rule="nonzero"/></g></svg>