<svg xmlns="http://www.w3.org/2000/svg" xmlns:xlink="http://www.w3.org/1999/xlink" width="297" zoomAndPan="magnify" viewBox="0 0 222.75 225" height="300" preserveAspectRatio="xMidYMid meet" version="1.0"><defs><clipPath id="17fe984e3c"><path d="M 93 175 L 130 175 L 130 189.371094 L 93 189.371094 Z M 93 175 " clip-rule="nonzero"/></clipPath><clipPath id="1280f9b442"><path d="M 41.515625 35.792969 L 180.859375 35.792969 L 180.859375 169 L 41.515625 169 Z M 41.515625 35.792969 " clip-rule="nonzero"/></clipPath><clipPath id="4e71d5906e"><path d="M 140.964844 47.550781 L 185.164062 47.550781 L 185.164062 91.753906 L 140.964844 91.753906 Z M 140.964844 47.550781 " clip-rule="nonzero"/></clipPath></defs><g clip-path="url(#17fe984e3c)"><path fill="#f2d638" d="M 128.777344 175.847656 C 128.433594 175.351562 127.75 175.007812 127.316406 175.070312 L 95.269531 175.257812 C 95.269531 175.257812 94.121094 175.566406 93.808594 176.066406 C 93.5 176.5625 93.4375 177.183594 93.683594 177.710938 C 96.730469 184.699219 103.652344 189.199219 111.261719 189.199219 C 118.992188 189.199219 125.917969 184.605469 128.929688 177.492188 C 129.148438 176.933594 129.085938 176.3125 128.777344 175.847656 Z M 128.777344 175.847656 " fill-opacity="1" fill-rule="nonzero"/></g><g clip-path="url(#1280f9b442)"><path fill="#f2d638" d="M 179.734375 158.644531 L 160.078125 142.25 L 160.078125 98.554688 C 160.078125 76.414062 145.234375 57.691406 124.988281 51.726562 C 125.082031 51.074219 125.203125 50.421875 125.203125 49.738281 C 125.203125 42.039062 118.960938 35.796875 111.261719 35.796875 C 103.558594 35.796875 97.320312 42.039062 97.320312 49.738281 C 97.320312 50.421875 97.441406 51.074219 97.535156 51.726562 C 77.289062 57.691406 62.445312 76.382812 62.445312 98.554688 L 62.445312 142.25 L 42.757812 158.644531 C 41.949219 159.296875 41.515625 160.289062 41.515625 161.316406 L 41.515625 164.792969 C 41.515625 166.71875 43.066406 168.269531 44.992188 168.269531 L 177.5 168.269531 C 179.421875 168.269531 180.976562 166.71875 180.976562 164.792969 L 180.976562 161.316406 C 180.976562 160.289062 180.511719 159.296875 179.734375 158.644531 Z M 104.335938 50.300781 C 104.335938 50.113281 104.273438 49.925781 104.273438 49.738281 C 104.273438 45.890625 107.410156 42.753906 111.261719 42.753906 C 115.113281 42.753906 118.21875 45.890625 118.21875 49.738281 C 118.21875 49.925781 118.1875 50.113281 118.15625 50.300781 C 115.886719 49.988281 113.589844 49.738281 111.230469 49.738281 C 108.871094 49.738281 106.601562 49.957031 104.335938 50.300781 Z M 104.335938 50.300781 " fill-opacity="1" fill-rule="nonzero"/></g><g clip-path="url(#4e71d5906e)"><path fill="#ef4136" d="M 185.164062 69.644531 C 185.164062 70.367188 185.128906 71.089844 185.058594 71.8125 C 184.984375 72.53125 184.878906 73.246094 184.738281 73.957031 C 184.597656 74.667969 184.421875 75.367188 184.210938 76.058594 C 184 76.753906 183.757812 77.433594 183.480469 78.101562 C 183.203125 78.769531 182.894531 79.425781 182.554688 80.0625 C 182.214844 80.703125 181.839844 81.320312 181.4375 81.921875 C 181.035156 82.523438 180.605469 83.105469 180.148438 83.664062 C 179.6875 84.226562 179.203125 84.761719 178.691406 85.273438 C 178.179688 85.785156 177.644531 86.269531 177.082031 86.730469 C 176.523438 87.1875 175.945312 87.617188 175.339844 88.019531 C 174.738281 88.421875 174.121094 88.792969 173.480469 89.136719 C 172.84375 89.476562 172.191406 89.785156 171.519531 90.0625 C 170.851562 90.339844 170.171875 90.582031 169.480469 90.792969 C 168.785156 91.003906 168.085938 91.179688 167.375 91.320312 C 166.664062 91.460938 165.949219 91.566406 165.230469 91.640625 C 164.507812 91.710938 163.789062 91.746094 163.0625 91.746094 C 162.339844 91.746094 161.617188 91.710938 160.898438 91.640625 C 160.175781 91.566406 159.460938 91.460938 158.753906 91.320312 C 158.042969 91.179688 157.339844 91.003906 156.648438 90.792969 C 155.957031 90.582031 155.273438 90.339844 154.605469 90.0625 C 153.9375 89.785156 153.285156 89.476562 152.644531 89.136719 C 152.007812 88.792969 151.386719 88.421875 150.785156 88.019531 C 150.183594 87.617188 149.601562 87.1875 149.042969 86.730469 C 148.484375 86.269531 147.949219 85.785156 147.4375 85.273438 C 146.925781 84.761719 146.4375 84.226562 145.980469 83.664062 C 145.519531 83.105469 145.089844 82.523438 144.6875 81.921875 C 144.285156 81.320312 143.914062 80.703125 143.574219 80.0625 C 143.230469 79.425781 142.921875 78.769531 142.644531 78.101562 C 142.367188 77.433594 142.125 76.753906 141.914062 76.058594 C 141.703125 75.367188 141.527344 74.667969 141.386719 73.957031 C 141.246094 73.246094 141.140625 72.53125 141.070312 71.8125 C 141 71.089844 140.964844 70.367188 140.964844 69.644531 C 140.964844 68.921875 141 68.199219 141.070312 67.480469 C 141.140625 66.757812 141.246094 66.042969 141.386719 65.332031 C 141.527344 64.625 141.703125 63.921875 141.914062 63.230469 C 142.125 62.535156 142.367188 61.855469 142.644531 61.1875 C 142.921875 60.519531 143.230469 59.867188 143.574219 59.226562 C 143.914062 58.589844 144.285156 57.96875 144.6875 57.367188 C 145.089844 56.765625 145.519531 56.183594 145.980469 55.625 C 146.4375 55.066406 146.925781 54.53125 147.4375 54.019531 C 147.949219 53.507812 148.484375 53.019531 149.042969 52.5625 C 149.601562 52.101562 150.183594 51.671875 150.785156 51.269531 C 151.386719 50.867188 152.007812 50.496094 152.644531 50.15625 C 153.285156 49.8125 153.9375 49.503906 154.605469 49.226562 C 155.273438 48.949219 155.957031 48.707031 156.648438 48.496094 C 157.339844 48.285156 158.042969 48.109375 158.753906 47.96875 C 159.460938 47.828125 160.175781 47.722656 160.898438 47.652344 C 161.617188 47.582031 162.339844 47.542969 163.0625 47.542969 C 163.789062 47.542969 164.507812 47.582031 165.230469 47.652344 C 165.949219 47.722656 166.664062 47.828125 167.375 47.96875 C 168.085938 48.109375 168.785156 48.285156 169.480469 48.496094 C 170.171875 48.707031 170.851562 48.949219 171.519531 49.226562 C 172.191406 49.503906 172.84375 49.8125 173.480469 50.15625 C 174.121094 50.496094 174.738281 50.867188 175.339844 51.269531 C 175.945312 51.671875 176.523438 52.101562 177.082031 52.5625 C 177.644531 53.019531 178.179688 53.507812 178.691406 54.019531 C 179.203125 54.53125 179.6875 55.066406 180.148438 55.625 C 180.605469 56.183594 181.035156 56.765625 181.4375 57.367188 C 181.839844 57.96875 182.214844 58.589844 182.554688 59.226562 C 182.894531 59.867188 183.203125 60.519531 183.480469 61.1875 C 183.757812 61.855469 184 62.535156 184.210938 63.230469 C 184.421875 63.921875 184.597656 64.625 184.738281 65.332031 C 184.878906 66.042969 184.984375 66.757812 185.058594 67.480469 C 185.128906 68.199219 185.164062 68.921875 185.164062 69.644531 Z M 185.164062 69.644531 " fill-opacity="1" fill-rule="nonzero"/></g></svg>